<svg xmlns="http://www.w3.org/2000/svg" width="443.844" height="548.388" viewBox="0 0 443.844 548.388">
  <g id="Grupo_8596" data-name="Grupo 8596" transform="translate(-664.276 -242.841)" opacity="0.05">
    <path id="Trazado_8862" data-name="Trazado 8862" d="M978.108,242.923l-61.463,93.336c-3.2,4.859-67.669,102.936-68.432,104.083q-10.844,16.472-21.681,32.938Q749.686,589.956,672.86,706.66c-8.295,12.583-10.308,26.4-7.2,40.978a54.8,54.8,0,0,0,60.274,42.668c16.63-2.123,29.893-10.013,39.143-23.846,21.317-31.934,42.277-64.109,63.395-96.167q36.9-56.034,73.826-112.041c.948-1.436,67.345-101.788,67.345-101.788l138.478-213.541Z" transform="translate(0 0.482)" fill="#fff" fill-rule="evenodd"/>
    <g id="Grupo_8595" data-name="Grupo 8595" transform="translate(762.303 242.841)">
      <path id="Trazado_8863" data-name="Trazado 8863" d="M858.4,639.8,834.225,586.29l-13.419-29.924-.061.093L766.707,436.875l.052-.078L679.314,242.945h-.774L857.663,639.8Z" transform="translate(-678.541 -242.233)" fill="#fff"/>
      <path id="Trazado_8864" data-name="Trazado 8864" d="M766.32,437.483l54.038,119.584.061-.094L833.838,586.9,858.016,640.4l.255.565,109.782.214L886.636,455.84l.065-.1L833.426,335.479l-.071.107L792.549,243.2l-113.942-.362.321.711L766.372,437.4Z" transform="translate(-678.153 -242.841)" fill="#fff"/>
    </g>
  </g>
</svg>
