<svg xmlns="http://www.w3.org/2000/svg" width="47.299" height="46.227" viewBox="0 0 47.299 46.227">
  <g id="Grupo_8561" data-name="Grupo 8561" transform="translate(-12.634 -15.079)">
    <rect id="Rectángulo_2197" data-name="Rectángulo 2197" width="37.45" height="7.297" rx="2.121" transform="translate(17.558 27.792)" stroke-width="0.992" stroke="#334f87" stroke-linecap="round" stroke-linejoin="round" fill="#47bbe5"/>
    <path id="Trazado_8888" data-name="Trazado 8888" d="M0,0H31.289V25.719H0Z" transform="translate(20.639 35.089)" fill="#2486c5" stroke="#334f87" stroke-linecap="round" stroke-width="0.992"/>
    <line id="Línea_1" data-name="Línea 1" x2="46.307" transform="translate(13.13 60.81)" fill="#ffef53" stroke="#334f87" stroke-linecap="round" stroke-linejoin="round" stroke-width="0.992"/>
    <line id="Línea_2" data-name="Línea 2" x2="24.405" transform="translate(20.639 56.574)" fill="#ffef53" stroke="#334f87" stroke-linecap="round" stroke-linejoin="round" stroke-width="0.992"/>
    <line id="Línea_3" data-name="Línea 3" x2="3.37" transform="translate(48.558 56.574)" fill="#ffef53" stroke="#334f87" stroke-linecap="round" stroke-linejoin="round" stroke-width="0.992"/>
    <line id="Línea_4" data-name="Línea 4" x2="2.667" transform="translate(49.261 54.739)" fill="#ffef53" stroke="#334f87" stroke-linecap="round" stroke-linejoin="round" stroke-width="0.992"/>
    <line id="Línea_5" data-name="Línea 5" x2="2.667" transform="translate(20.639 37.179)" fill="#ffef53" stroke="#334f87" stroke-linecap="round" stroke-linejoin="round" stroke-width="0.992"/>
    <line id="Línea_6" data-name="Línea 6" x2="3.76" transform="translate(20.639 38.996)" fill="#ffef53" stroke="#334f87" stroke-linecap="round" stroke-linejoin="round" stroke-width="0.992"/>
    <line id="Línea_7" data-name="Línea 7" x2="1.685" transform="translate(50.243 52.905)" fill="#ffef53" stroke="#334f87" stroke-linecap="round" stroke-linejoin="round" stroke-width="0.992"/>
    <path id="Trazado_1012" data-name="Trazado 1012" d="M38.121,40.856v14.45L42,51.43l3.851,3.851V40.856" transform="translate(-5.7 -5.766)" fill="#e5e2d1" stroke="#334f87" stroke-linecap="round" stroke-linejoin="round" stroke-width="0.992"/>
    <path id="Trazado_1032" data-name="Trazado 1032" d="M0,0H9.459V7.3H0Z" transform="translate(31.554 27.792)" fill="#e5e2d1" stroke="#334f87" stroke-linecap="round" stroke-width="0.992"/>
    <g id="Grupo_8560" data-name="Grupo 8560" transform="translate(21.638 15.575)">
      <path id="Trazado_1013" data-name="Trazado 1013" d="M33.4,28a4.209,4.209,0,1,1,4.124-3.55,6.856,6.856,0,1,0-1.584,2.684A4.151,4.151,0,0,1,33.4,28Z" transform="translate(-24.152 -15.575)" fill="#0ebcf1" stroke="#334f87" stroke-linecap="round" stroke-linejoin="round" stroke-width="0.992"/>
      <path id="Trazado_1014" data-name="Trazado 1014" d="M48.8,28a4.209,4.209,0,1,0-4.124-3.55,6.856,6.856,0,1,1,1.584,2.684A4.151,4.151,0,0,0,48.8,28Z" transform="translate(-28.764 -15.575)" fill="#0ebcf1" stroke="#334f87" stroke-linecap="round" stroke-linejoin="round" stroke-width="0.992"/>
    </g>
    <path id="Trazado_1031" data-name="Trazado 1031" d="M3.123,0A3.123,3.123,0,1,1,0,3.123,3.123,3.123,0,0,1,3.123,0Z" transform="translate(33.16 24.22)" fill="#2486c5" stroke="#334f87" stroke-linecap="round" stroke-width="0.992"/>
  </g>
</svg>
