<svg xmlns="http://www.w3.org/2000/svg" width="147.903" height="121.275" viewBox="0 0 147.903 121.275">
  <g id="Grupo_8798" data-name="Grupo 8798" transform="matrix(-0.259, 0.966, -0.966, -0.259, 261.644, -72.445)">
    <g id="Grupo_8795" data-name="Grupo 8795" transform="translate(182.957 -76.21) rotate(50)">
      <g id="Grupo_8792" data-name="Grupo 8792" transform="translate(154.537 110.032)">
        <g id="Grupo_8791" data-name="Grupo 8791" transform="translate(0 0)">
          <g id="Grupo_8781" data-name="Grupo 8781">
            <path id="Trazado_9062" data-name="Trazado 9062" d="M734.168,95.846a3.965,3.965,0,0,1,2.243,5.138L710.35,167.4a3.961,3.961,0,0,1-5.136,2.241l-34.634-13.592a3.959,3.959,0,0,1-2.24-5.136L694.4,84.5a3.964,3.964,0,0,1,5.138-2.243Z" transform="translate(-667.313 -81.232)" fill="#2486c5"/>
            <path id="Trazado_9063" data-name="Trazado 9063" d="M706.912,170.912a4.721,4.721,0,0,1-1.723-.328l-34.634-13.593a4.708,4.708,0,0,1-2.663-6.108l26.058-66.409a4.712,4.712,0,0,1,6.108-2.665L734.691,95.4a4.719,4.719,0,0,1,2.666,6.106L711.3,167.919a4.679,4.679,0,0,1-2.5,2.6A4.733,4.733,0,0,1,706.912,170.912Zm-8.577-87.933a3.226,3.226,0,0,0-2.991,2.042l-26.058,66.41A3.21,3.21,0,0,0,671.1,155.6l34.633,13.592a3.216,3.216,0,0,0,4.168-1.817l26.061-66.413a3.218,3.218,0,0,0-1.819-4.166L699.51,83.2A3.23,3.23,0,0,0,698.335,82.978Z" transform="translate(-667.562 -81.481)" fill="#334f87"/>
          </g>
          <g id="Grupo_8782" data-name="Grupo 8782" transform="translate(8.022 7.801)">
            <path id="Trazado_9064" data-name="Trazado 9064" d="M693.532,91.358l-20.111,51.256a11.505,11.505,0,0,1,3.552,8.979l20.2,7.93a11.492,11.492,0,0,1,8.713-4.166L726,104.1a11.492,11.492,0,0,1-3.551-8.981l-20.206-7.927A11.5,11.5,0,0,1,693.532,91.358Z" transform="translate(-672.672 -86.443)" fill="#47bbe5"/>
            <path id="Trazado_9065" data-name="Trazado 9065" d="M697.425,160.521a.731.731,0,0,1-.274-.052l-20.2-7.93a.747.747,0,0,1-.473-.74,10.713,10.713,0,0,0-3.322-8.394.75.75,0,0,1-.181-.816l20.113-51.256a.748.748,0,0,1,.689-.475,10.7,10.7,0,0,0,8.144-3.9.75.75,0,0,1,.85-.22l20.2,7.927a.746.746,0,0,1,.475.74,10.7,10.7,0,0,0,3.32,8.4.751.751,0,0,1,.181.816l-20.113,51.257a.751.751,0,0,1-.689.476A10.7,10.7,0,0,0,698,160.248.748.748,0,0,1,697.425,160.521Zm-19.436-9.181,19.217,7.542a12.183,12.183,0,0,1,8.415-4.008l19.752-50.341a12.19,12.19,0,0,1-3.442-8.663L702.715,88.33a12.186,12.186,0,0,1-8.416,4.008l-19.752,50.34A12.192,12.192,0,0,1,677.989,151.339Z" transform="translate(-672.921 -86.692)" fill="#334f87"/>
          </g>
          <g id="Grupo_8783" data-name="Grupo 8783" transform="translate(20.005 29.65)">
            <path id="Trazado_9066" data-name="Trazado 9066" d="M700.958,102.783a14.308,14.308,0,1,1-18.542,8.093A14.309,14.309,0,0,1,700.958,102.783Z" transform="translate(-680.678 -101.037)" fill="#d3d3d3"/>
            <path id="Trazado_9067" data-name="Trazado 9067" d="M695.963,131.409a15.057,15.057,0,1,1,5.517-29.073h0a15.056,15.056,0,0,1-5.517,29.073Zm.012-28.625a13.594,13.594,0,1,0,4.958.945h0A13.542,13.542,0,0,0,695.975,102.784Z" transform="translate(-680.925 -101.287)" fill="#334f87"/>
          </g>
          <g id="Grupo_8786" data-name="Grupo 8786" transform="translate(20.631 16.644)">
            <g id="Grupo_8784" data-name="Grupo 8784" transform="translate(17.619)">
              <path id="Trazado_9068" data-name="Trazado 9068" d="M700.264,93.435a4.87,4.87,0,1,1-6.313,2.756A4.871,4.871,0,0,1,700.264,93.435Z" transform="translate(-692.864 -92.351)" fill="#f1f4dc"/>
              <path id="Trazado_9069" data-name="Trazado 9069" d="M698.736,103.839a5.62,5.62,0,1,1,2.051-10.852h0a5.621,5.621,0,0,1-2.051,10.852Zm0-9.743a4.121,4.121,0,0,0-1.512,7.957A4.121,4.121,0,1,0,698.74,94.1Z" transform="translate(-693.113 -92.599)" fill="#334f87"/>
            </g>
            <g id="Grupo_8785" data-name="Grupo 8785" transform="translate(0 44.9)">
              <path id="Trazado_9070" data-name="Trazado 9070" d="M688.493,123.431a4.87,4.87,0,1,1-6.313,2.753A4.869,4.869,0,0,1,688.493,123.431Z" transform="translate(-681.096 -122.342)" fill="#f1f4dc"/>
              <path id="Trazado_9071" data-name="Trazado 9071" d="M686.966,133.835a5.62,5.62,0,1,1,2.05-10.852h0a5.621,5.621,0,0,1-2.05,10.852Zm0-9.746a4.128,4.128,0,1,0,1.5.287h0A4.112,4.112,0,0,0,686.963,124.089Z" transform="translate(-681.344 -122.591)" fill="#334f87"/>
            </g>
          </g>
          <g id="Grupo_8790" data-name="Grupo 8790" transform="translate(24.701 38.364)">
            <g id="Grupo_8787" data-name="Grupo 8787" transform="translate(1.889)">
              <path id="Trazado_9072" data-name="Trazado 9072" d="M690.3,117.068a4.979,4.979,0,1,1,1.817-9.614.749.749,0,0,1-.549,1.394,3.481,3.481,0,1,0,1.969,4.511.749.749,0,0,1,1.4.546,4.987,4.987,0,0,1-4.632,3.163Z" transform="translate(-685.324 -107.107)" fill="#334f87"/>
            </g>
            <g id="Grupo_8788" data-name="Grupo 8788" transform="translate(10.055 3.09)">
              <path id="Trazado_9073" data-name="Trazado 9073" d="M695.459,119.131a4.951,4.951,0,0,1-1.811-.344.748.748,0,1,1,.546-1.392,3.482,3.482,0,1,0-1.969-4.515.749.749,0,0,1-1.4-.546,4.979,4.979,0,1,1,4.629,6.8Z" transform="translate(-690.779 -109.171)" fill="#334f87"/>
            </g>
            <g id="Grupo_8789" data-name="Grupo 8789" transform="translate(0 1.831)">
              <path id="Trazado_9074" data-name="Trazado 9074" d="M704.922,117.719a.767.767,0,0,1-.274-.052l-20.11-7.892a.748.748,0,1,1,.546-1.392l20.111,7.891a.749.749,0,0,1-.274,1.446Z" transform="translate(-684.062 -108.33)" fill="#334f87"/>
            </g>
          </g>
        </g>
      </g>
      <g id="Grupo_8793" data-name="Grupo 8793" transform="matrix(0.966, -0.259, 0.259, 0.966, 124.396, 110.748)">
        <g id="Grupo_8791-2" data-name="Grupo 8791" transform="translate(0 0)">
          <g id="Grupo_8781-2" data-name="Grupo 8781">
            <path id="Trazado_9062-2" data-name="Trazado 9062" d="M66.1,13.865A3.965,3.965,0,0,1,68.347,19L42.286,85.415a3.961,3.961,0,0,1-5.136,2.241L2.516,74.064a3.959,3.959,0,0,1-2.24-5.136L26.334,2.517A3.964,3.964,0,0,1,31.471.275Z" transform="translate(0.75 0.75)" fill="#2486c5"/>
            <path id="Trazado_9063-2" data-name="Trazado 9063" d="M39.349,89.431a4.72,4.72,0,0,1-1.723-.328L2.992,75.51A4.708,4.708,0,0,1,.329,69.4L26.386,2.993A4.712,4.712,0,0,1,32.494.328l34.634,13.59a4.719,4.719,0,0,1,2.666,6.106L43.734,86.438a4.68,4.68,0,0,1-2.5,2.6A4.734,4.734,0,0,1,39.349,89.431ZM30.773,1.5a3.226,3.226,0,0,0-2.991,2.042L1.724,69.95A3.21,3.21,0,0,0,3.54,74.117L38.173,87.709a3.216,3.216,0,0,0,4.168-1.817L68.4,19.478a3.218,3.218,0,0,0-1.819-4.166L31.948,1.72A3.23,3.23,0,0,0,30.773,1.5Z" fill="#334f87"/>
          </g>
          <g id="Grupo_8782-2" data-name="Grupo 8782" transform="translate(8.022 7.801)">
            <path id="Trazado_9064-2" data-name="Trazado 9064" d="M20.111,4.166,0,55.422A11.505,11.505,0,0,1,3.552,64.4l20.2,7.93a11.491,11.491,0,0,1,8.713-4.166L52.581,16.908A11.492,11.492,0,0,1,49.03,7.927L28.824,0A11.5,11.5,0,0,1,20.111,4.166Z" transform="translate(0.749 0.749)" fill="#47bbe5"/>
            <path id="Trazado_9065-2" data-name="Trazado 9065" d="M24.5,73.829a.73.73,0,0,1-.274-.052l-20.2-7.93a.747.747,0,0,1-.473-.74A10.714,10.714,0,0,0,.233,56.713.75.75,0,0,1,.051,55.9L20.164,4.642a.748.748,0,0,1,.689-.475A10.7,10.7,0,0,0,29,.272a.75.75,0,0,1,.85-.22l20.2,7.927a.746.746,0,0,1,.475.74,10.7,10.7,0,0,0,3.32,8.4.751.751,0,0,1,.181.816L33.915,69.187a.751.751,0,0,1-.689.476,10.7,10.7,0,0,0-8.144,3.894A.748.748,0,0,1,24.5,73.829ZM5.068,64.648,24.286,72.19A12.183,12.183,0,0,1,32.7,68.182L52.453,17.841a12.19,12.19,0,0,1-3.442-8.663L29.795,1.638a12.187,12.187,0,0,1-8.416,4.008L1.626,55.986A12.192,12.192,0,0,1,5.068,64.648Z" transform="translate(0 0)" fill="#334f87"/>
          </g>
          <g id="Grupo_8783-2" data-name="Grupo 8783" transform="translate(20.005 29.65)">
            <path id="Trazado_9066-2" data-name="Trazado 9066" d="M19.535.993A14.308,14.308,0,1,1,.993,9.086,14.309,14.309,0,0,1,19.535.993Z" transform="translate(0.745 0.753)" fill="#d3d3d3"/>
            <path id="Trazado_9067-2" data-name="Trazado 9067" d="M15.037,30.122a15.059,15.059,0,0,1-14-20.557A15.051,15.051,0,0,1,20.554,1.05h0a15.056,15.056,0,0,1-5.517,29.073ZM15.049,1.5a13.594,13.594,0,1,0,4.958.945h0A13.543,13.543,0,0,0,15.049,1.5Z" transform="translate(0 0)" fill="#334f87"/>
          </g>
          <g id="Grupo_8786-2" data-name="Grupo 8786" transform="translate(20.631 16.644)">
            <g id="Grupo_8784-2" data-name="Grupo 8784" transform="translate(17.619 0)">
              <path id="Trazado_9068-2" data-name="Trazado 9068" d="M6.651.337A4.87,4.87,0,1,1,.338,3.093,4.871,4.871,0,0,1,6.651.337Z" transform="translate(0.749 0.747)" fill="#f1f4dc"/>
              <path id="Trazado_9069-2" data-name="Trazado 9069" d="M5.623,11.24A5.62,5.62,0,1,1,7.674.388h0A5.621,5.621,0,0,1,5.623,11.24Zm0-9.743A4.121,4.121,0,0,0,4.116,9.454,4.122,4.122,0,0,0,9.4,3.97,4.121,4.121,0,0,0,5.628,1.5Z" transform="translate(0)" fill="#334f87"/>
            </g>
            <g id="Grupo_8785-2" data-name="Grupo 8785" transform="translate(0 44.9)">
              <path id="Trazado_9070-2" data-name="Trazado 9070" d="M6.651.338A4.87,4.87,0,1,1,.338,3.091,4.869,4.869,0,0,1,6.651.338Z" transform="translate(0.747 0.751)" fill="#f1f4dc"/>
              <path id="Trazado_9071-2" data-name="Trazado 9071" d="M5.622,11.244A5.62,5.62,0,0,1,3.372.473a5.576,5.576,0,0,1,4.3-.081h0A5.621,5.621,0,0,1,5.622,11.244Zm0-9.746A4.123,4.123,0,0,0,4.113,9.459,4.122,4.122,0,1,0,7.124,1.785h0A4.113,4.113,0,0,0,5.619,1.5Z" transform="translate(0 0)" fill="#334f87"/>
            </g>
          </g>
          <g id="Grupo_8790-2" data-name="Grupo 8790" transform="translate(24.701 38.364)">
            <g id="Grupo_8787-2" data-name="Grupo 8787" transform="translate(1.889 0)">
              <path id="Trazado_9072-2" data-name="Trazado 9072" d="M4.981,9.961A4.979,4.979,0,1,1,6.8.347a.749.749,0,0,1-.549,1.394A3.48,3.48,0,1,0,3.71,8.221a3.477,3.477,0,0,0,4.508-1.97.749.749,0,0,1,1.4.546A4.987,4.987,0,0,1,4.981,9.961Z" transform="translate(0)" fill="#334f87"/>
            </g>
            <g id="Grupo_8788-2" data-name="Grupo 8788" transform="translate(10.055 3.09)">
              <path id="Trazado_9073-2" data-name="Trazado 9073" d="M4.68,9.959a4.952,4.952,0,0,1-1.811-.344.748.748,0,1,1,.546-1.392A3.482,3.482,0,1,0,1.446,3.708a.749.749,0,0,1-1.4-.546,4.979,4.979,0,1,1,4.629,6.8Z" transform="translate(0 0)" fill="#334f87"/>
            </g>
            <g id="Grupo_8789-2" data-name="Grupo 8789" transform="translate(0 1.831)">
              <path id="Trazado_9074-2" data-name="Trazado 9074" d="M20.859,9.389a.767.767,0,0,1-.274-.052L.476,1.444A.748.748,0,1,1,1.022.052L21.133,7.943a.749.749,0,0,1-.274,1.446Z" transform="translate(0 0)" fill="#334f87"/>
            </g>
          </g>
        </g>
      </g>
      <g id="Grupo_8794" data-name="Grupo 8794" transform="translate(100.645 115.437) rotate(-30)">
        <g id="Grupo_8791-3" data-name="Grupo 8791" transform="translate(0 0)">
          <g id="Grupo_8781-3" data-name="Grupo 8781">
            <path id="Trazado_9062-3" data-name="Trazado 9062" d="M66.1,13.865A3.965,3.965,0,0,1,68.347,19L42.286,85.415a3.961,3.961,0,0,1-5.136,2.241L2.516,74.064a3.959,3.959,0,0,1-2.24-5.136L26.333,2.517A3.964,3.964,0,0,1,31.471.275Z" transform="translate(0.75 0.749)" fill="#2486c5"/>
            <path id="Trazado_9063-3" data-name="Trazado 9063" d="M39.349,89.431a4.72,4.72,0,0,1-1.723-.328L2.992,75.51A4.708,4.708,0,0,1,.329,69.4L26.386,2.993A4.712,4.712,0,0,1,32.494.328l34.634,13.59a4.719,4.719,0,0,1,2.666,6.106L43.734,86.438a4.68,4.68,0,0,1-2.5,2.6A4.734,4.734,0,0,1,39.349,89.431ZM30.773,1.5a3.226,3.226,0,0,0-2.991,2.042L1.724,69.95A3.21,3.21,0,0,0,3.54,74.117L38.173,87.709a3.216,3.216,0,0,0,4.168-1.817L68.4,19.478a3.218,3.218,0,0,0-1.819-4.166L31.948,1.72A3.23,3.23,0,0,0,30.773,1.5Z" fill="#334f87"/>
          </g>
          <g id="Grupo_8782-3" data-name="Grupo 8782" transform="translate(8.022 7.801)">
            <path id="Trazado_9064-3" data-name="Trazado 9064" d="M20.111,4.166,0,55.422A11.505,11.505,0,0,1,3.552,64.4l20.2,7.93a11.492,11.492,0,0,1,8.713-4.166L52.581,16.908A11.493,11.493,0,0,1,49.03,7.927L28.824,0A11.5,11.5,0,0,1,20.111,4.166Z" transform="translate(0.749 0.749)" fill="#47bbe5"/>
            <path id="Trazado_9065-3" data-name="Trazado 9065" d="M24.5,73.829a.731.731,0,0,1-.274-.052l-20.2-7.93a.747.747,0,0,1-.473-.74A10.714,10.714,0,0,0,.233,56.713.75.75,0,0,1,.051,55.9L20.164,4.642a.748.748,0,0,1,.689-.475A10.7,10.7,0,0,0,29,.272a.75.75,0,0,1,.85-.22l20.2,7.927a.746.746,0,0,1,.475.74,10.7,10.7,0,0,0,3.32,8.4.751.751,0,0,1,.181.816L33.915,69.187a.751.751,0,0,1-.689.476,10.7,10.7,0,0,0-8.144,3.894A.748.748,0,0,1,24.5,73.829ZM5.068,64.648,24.286,72.19A12.183,12.183,0,0,1,32.7,68.182L52.453,17.841a12.19,12.19,0,0,1-3.442-8.663L29.795,1.638a12.187,12.187,0,0,1-8.416,4.008L1.626,55.986A12.192,12.192,0,0,1,5.068,64.648Z" transform="translate(0 0)" fill="#334f87"/>
          </g>
          <g id="Grupo_8783-3" data-name="Grupo 8783" transform="translate(20.005 29.65)">
            <path id="Trazado_9066-3" data-name="Trazado 9066" d="M19.535.993A14.308,14.308,0,1,1,.993,9.086,14.309,14.309,0,0,1,19.535.993Z" transform="translate(0.745 0.753)" fill="#d3d3d3"/>
            <path id="Trazado_9067-3" data-name="Trazado 9067" d="M15.037,30.122a15.059,15.059,0,0,1-14-20.557A15.051,15.051,0,0,1,20.554,1.05h0a15.056,15.056,0,0,1-5.517,29.073ZM15.049,1.5a13.594,13.594,0,1,0,4.958.945h0A13.543,13.543,0,0,0,15.049,1.5Z" transform="translate(0 0)" fill="#334f87"/>
          </g>
          <g id="Grupo_8786-3" data-name="Grupo 8786" transform="translate(20.631 16.644)">
            <g id="Grupo_8784-3" data-name="Grupo 8784" transform="translate(17.619 0)">
              <path id="Trazado_9068-3" data-name="Trazado 9068" d="M6.651.337A4.87,4.87,0,1,1,.338,3.093,4.871,4.871,0,0,1,6.651.337Z" transform="translate(0.749 0.747)" fill="#f1f4dc"/>
              <path id="Trazado_9069-3" data-name="Trazado 9069" d="M5.623,11.24A5.62,5.62,0,1,1,7.674.388h0A5.621,5.621,0,0,1,5.623,11.24Zm0-9.743A4.121,4.121,0,0,0,4.116,9.454,4.122,4.122,0,0,0,9.4,3.97,4.121,4.121,0,0,0,5.628,1.5Z" transform="translate(0 0)" fill="#334f87"/>
            </g>
            <g id="Grupo_8785-3" data-name="Grupo 8785" transform="translate(0 44.9)">
              <path id="Trazado_9070-3" data-name="Trazado 9070" d="M6.651.338A4.87,4.87,0,1,1,.338,3.091,4.869,4.869,0,0,1,6.651.338Z" transform="translate(0.747 0.751)" fill="#f1f4dc"/>
              <path id="Trazado_9071-3" data-name="Trazado 9071" d="M5.622,11.244A5.62,5.62,0,0,1,3.372.473a5.576,5.576,0,0,1,4.3-.081h0A5.621,5.621,0,0,1,5.622,11.244Zm0-9.746A4.123,4.123,0,0,0,4.113,9.459,4.122,4.122,0,1,0,7.124,1.785h0A4.112,4.112,0,0,0,5.619,1.5Z" transform="translate(0 0)" fill="#334f87"/>
            </g>
          </g>
          <g id="Grupo_8790-3" data-name="Grupo 8790" transform="translate(24.701 38.364)">
            <g id="Grupo_8787-3" data-name="Grupo 8787" transform="translate(1.889 0)">
              <path id="Trazado_9072-3" data-name="Trazado 9072" d="M4.981,9.961A4.979,4.979,0,1,1,6.8.347a.749.749,0,0,1-.549,1.394A3.48,3.48,0,1,0,3.71,8.221a3.477,3.477,0,0,0,4.508-1.97.749.749,0,0,1,1.4.546A4.987,4.987,0,0,1,4.981,9.961Z" transform="translate(0)" fill="#334f87"/>
            </g>
            <g id="Grupo_8788-3" data-name="Grupo 8788" transform="translate(10.055 3.09)">
              <path id="Trazado_9073-3" data-name="Trazado 9073" d="M4.68,9.959a4.951,4.951,0,0,1-1.811-.344.748.748,0,1,1,.546-1.392A3.482,3.482,0,1,0,1.446,3.708a.749.749,0,0,1-1.4-.546,4.979,4.979,0,1,1,4.629,6.8Z" transform="translate(0 0)" fill="#334f87"/>
            </g>
            <g id="Grupo_8789-3" data-name="Grupo 8789" transform="translate(0 1.831)">
              <path id="Trazado_9074-3" data-name="Trazado 9074" d="M20.859,9.389a.767.767,0,0,1-.274-.052L.476,1.444A.748.748,0,1,1,1.022.052L21.133,7.943a.749.749,0,0,1-.274,1.446Z" transform="translate(0 0)" fill="#334f87"/>
            </g>
          </g>
        </g>
      </g>
    </g>
    <g id="Grupo_8557" data-name="Grupo 8557" transform="translate(118.496 124.184)">
      <path id="Trazado_1010" data-name="Trazado 1010" d="M-225.761-163.769s-2.468-15.171-3.292-15.995c-.769-.769-15.78-3.077-15.78-3.077s15.2-2.5,16.037-3.332c.759-.759,3.034-15.738,3.034-15.738s2.256,14.961,3.01,15.713c.839.841,16.062,3.358,16.062,3.358s-15.142,2.439-15.954,3.251C-223.423-178.81-225.761-163.769-225.761-163.769Z" transform="translate(244.833 201.911)" fill="#f7f7f5"/>
    </g>
    <g id="Grupo_8796" data-name="Grupo 8796" transform="translate(136.975 162.326)">
      <path id="Trazado_1010-2" data-name="Trazado 1010" d="M-234.572-181.39s-1.328-8.162-1.771-8.605c-.414-.414-8.49-1.655-8.49-1.655s8.179-1.345,8.628-1.793c.408-.408,1.632-8.467,1.632-8.467s1.214,8.049,1.619,8.454c.451.452,8.641,1.806,8.641,1.806s-8.147,1.312-8.584,1.749C-233.314-189.482-234.572-181.39-234.572-181.39Z" transform="translate(244.833 201.911)" fill="#f7f7f5"/>
    </g>
    <g id="Grupo_8797" data-name="Grupo 8797" transform="translate(215.975 133.723)">
      <path id="Trazado_1010-3" data-name="Trazado 1010" d="M-236.271-184.787s-1.108-6.811-1.478-7.181c-.345-.345-7.085-1.381-7.085-1.381s6.826-1.122,7.2-1.5c.341-.341,1.362-7.066,1.362-7.066s1.013,6.717,1.351,7.055c.376.377,7.211,1.507,7.211,1.507s-6.8,1.095-7.163,1.46S-236.271-184.787-236.271-184.787Z" transform="translate(244.833 201.911)" fill="#f7f7f5"/>
    </g>
  </g>
</svg>
