<svg xmlns="http://www.w3.org/2000/svg" xmlns:xlink="http://www.w3.org/1999/xlink" width="167.355" height="138.025" viewBox="0 0 167.355 138.025">
  <defs>
    <clipPath id="clip-path">
      <circle id="Elipse_21" data-name="Elipse 21" cx="22.483" cy="22.483" r="22.483" fill="#f4ebeb"/>
    </clipPath>
  </defs>
  <g id="Grupo_8833" data-name="Grupo 8833" transform="translate(-90.427 -211.859)">
    <g id="Grupo_8753" data-name="Grupo 8753" transform="matrix(0.985, 0.174, -0.174, 0.985, -1610.067, -325.565)">
      <g id="Grupo_8752" data-name="Grupo 8752" transform="translate(1792.972 250.373)">
        <g id="Grupo_8669" data-name="Grupo 8669" transform="translate(0 0)">
          <path id="Trazado_8920" data-name="Trazado 8920" d="M145.692,82.933c0,4.532-4.129,8.205-9.219,8.205H9.219C4.124,91.138,0,87.465,0,82.933V8.205C0,3.673,4.124,0,9.219,0H136.473c5.09,0,9.219,3.673,9.219,8.205Z" transform="translate(1.073 1.071)" fill="#e3e5e8"/>
          <path id="Trazado_8921" data-name="Trazado 8921" d="M137.355,93.28H10.483C4.7,93.28,0,89.077,0,83.909V9.37C0,4.2,4.7,0,10.483,0H137.355c5.781,0,10.483,4.2,10.483,9.37V83.909C147.838,89.077,143.137,93.28,137.355,93.28ZM10.483,2.372c-4.358,0-7.905,3.14-7.905,7V83.909c0,3.861,3.547,7,7.905,7H137.355c4.359,0,7.905-3.138,7.905-7V9.37c0-3.859-3.547-7-7.905-7Z" transform="translate(0 0)" fill="#334f87"/>
        </g>
        <g id="Grupo_8744" data-name="Grupo 8744" transform="translate(14.539 23.073)">
          <g id="Grupo_8737" data-name="Grupo 8737" transform="translate(0 0)">
            <path id="Trazado_8987" data-name="Trazado 8987" d="M22.483,0A22.483,22.483,0,1,1,0,22.483,22.483,22.483,0,0,1,22.483,0Z" transform="translate(0 0)" fill="#fff" stroke="#002f62" stroke-width="1"/>
            <g id="Grupo_8736" data-name="Grupo 8736" transform="translate(0 0)" clip-path="url(#clip-path)">
              <g id="Grupo_8735" data-name="Grupo 8735" transform="translate(0.622 2.566)">
                <rect id="Rectángulo_2258" data-name="Rectángulo 2258" width="5.473" height="5.473" transform="translate(19.119 30.199)" fill="#e5e2d1"/>
                <g id="Grupo_8729" data-name="Grupo 8729" transform="translate(30.333 16.714)">
                  <path id="Trazado_8965" data-name="Trazado 8965" d="M.014.845A2.619,2.619,0,0,1,3.03.185C5.093.845,3.822,7.532,0,8.109Z" transform="translate(0 0)" fill="#e5e2d1"/>
                  <path id="Trazado_8966" data-name="Trazado 8966" d="M0,1.172S.487-.047,1.511,0,2.193,3.024,0,4.681Z" transform="translate(0.87 1.43)" fill="#ccc9b5"/>
                </g>
                <g id="Grupo_8730" data-name="Grupo 8730" transform="translate(8.9 16.714)">
                  <path id="Trazado_8967" data-name="Trazado 8967" d="M4,.845A2.619,2.619,0,0,0,.982.185C-1.081.845.19,7.532,4.011,8.109Z" transform="translate(0 0)" fill="#ccc9b5"/>
                  <path id="Trazado_8968" data-name="Trazado 8968" d="M2.063,1.172S1.576-.047.552,0-.13,3.024,2.063,4.681Z" transform="translate(1.078 1.43)" fill="#898a8f"/>
                </g>
                <g id="Grupo_8731" data-name="Grupo 8731" transform="translate(11.783 3.417)">
                  <path id="Trazado_8969" data-name="Trazado 8969" d="M.564.016Q.279.016,0,0A2.449,2.449,0,0,0,.564.016Z" transform="translate(9.509 28.516)" fill="none"/>
                  <path id="Trazado_8970" data-name="Trazado 8970" d="M8.568,0h0A10.065,10.065,0,0,0,.789,3.691S-.812,14.1.547,20.413c1.082,5.023,5.245,7.813,7.457,8.1q.28.016.564.016h0A10.1,10.1,0,0,0,18.641,18.459V10.073A10.1,10.1,0,0,0,8.568,0Z" transform="translate(1.505 0)" fill="#e5e2d1"/>
                  <path id="Trazado_8971" data-name="Trazado 8971" d="M0,14.767A10.106,10.106,0,0,0,9.509,24.824c-2.211-.29-6.375-3.08-7.457-8.1C.693,10.4,2.294,0,2.294,0A10.019,10.019,0,0,0,0,6.381Z" transform="translate(0 3.691)" fill="#ccc9b5"/>
                </g>
                <path id="Trazado_8972" data-name="Trazado 8972" d="M0,2.28S7.135,7.086,13.477,3.355c0,0-13.232-4.611-13.3-3.022A10.271,10.271,0,0,1,0,2.28Z" transform="translate(15.808 7.359)" fill="#ccc9b5"/>
                <path id="Trazado_8973" data-name="Trazado 8973" d="M20.792,26.075H0V1.6A1.521,1.521,0,0,1,1.6,0H19.187a1.554,1.554,0,0,1,1.6,1.6Z" transform="translate(11.466 34.916)" fill="#0072be"/>
                <g id="Grupo_8732" data-name="Grupo 8732" transform="translate(0 35.206)">
                  <path id="Trazado_8974" data-name="Trazado 8974" d="M14.86,3.942,13.484,1.974,12.112,0A33.678,33.678,0,0,0,1.117,14.507C-.541,18.824.032,23.882.416,26.12H5.311l-1.587,0a23.394,23.394,0,0,1,0-9.28c.979-5.7,7.96-11.964,7.96-11.964A4.833,4.833,0,0,1,11.878,6.6,24.242,24.242,0,0,1,14.86,3.942Z" transform="translate(0 0)" fill="#0072be"/>
                  <path id="Trazado_8975" data-name="Trazado 8975" d="M8.177,1.955V0C6.991,1.112,1.311,6.667.435,11.763a23.393,23.393,0,0,0,0,9.28l1.587,0c-.108-.481-1.256-5.858.292-9.888A28.734,28.734,0,0,1,8.177,1.955Z" transform="translate(3.289 5.071)" fill="#2543a4"/>
                </g>
                <g id="Grupo_8733" data-name="Grupo 8733" transform="translate(28.862 35.197)">
                  <path id="Trazado_8976" data-name="Trazado 8976" d="M0,3.942,1.376,1.974,2.748,0A33.679,33.679,0,0,1,13.743,14.507c1.658,4.317,1.085,9.375.7,11.613H9.549l1.587,0a23.394,23.394,0,0,0,0-9.28c-.979-5.7-7.96-11.964-7.96-11.964A4.831,4.831,0,0,0,2.982,6.6,24.249,24.249,0,0,0,0,3.942Z" transform="translate(0 0)" fill="#0072be"/>
                  <path id="Trazado_8977" data-name="Trazado 8977" d="M0,1.955V0C1.186,1.113,6.866,6.667,7.742,11.763a23.392,23.392,0,0,1,0,9.28l-1.587,0c.108-.481,1.256-5.858-.292-9.888A28.736,28.736,0,0,0,0,1.955Z" transform="translate(3.394 5.071)" fill="#2543a4"/>
                </g>
                <path id="Trazado_8978" data-name="Trazado 8978" d="M4.006.893l-.623.274C2.467-.293.018.03.018.03-.227,1.964,2.16,3.506,2.16,3.506l.153,3.707L4.2,10.181l0-.078.015.039C7.312,2.937,4.006.893,4.006.893Z" transform="translate(27.738 8.086)" fill="#00222d"/>
                <path id="Trazado_8979" data-name="Trazado 8979" d="M1.536.893l.623.274C3.075-.293,5.524.03,5.524.03c.244,1.933-2.142,3.476-2.142,3.476L3.229,7.213,1.338,10.181c0-.027,0-.052,0-.078l-.016.039C-1.77,2.937,1.536.893,1.536.893Z" transform="translate(10.549 8.086)" fill="#00222d"/>
                <g id="Grupo_8734" data-name="Grupo 8734" transform="translate(11.782 0)">
                  <path id="Trazado_8980" data-name="Trazado 8980" d="M.053,5.356a.913.913,0,0,0,.962,1.213A6.2,6.2,0,0,1,3,6.672C5.05,7.1,7.454,10.258,13.571,9.19a10.585,10.585,0,0,0,4.551-1.957C18.255,4.858,17.558.811,11.5,0h0A32.393,32.393,0,0,0,4.56.593a19.929,19.929,0,0,0-3.3,1.273,1.786,1.786,0,0,1-.04.294C1.052,2.927.445,4.241.053,5.356Z" transform="translate(2.11)" fill="#002f47"/>
                  <path id="Trazado_8981" data-name="Trazado 8981" d="M15.681,7.324C9.564,8.392,7.16,5.233,5.113,4.806a6.185,6.185,0,0,0-1.98-.1.915.915,0,0,1-.97-1.212c.392-1.115,1-2.428,1.17-3.2A1.775,1.775,0,0,0,3.373,0,9.684,9.684,0,0,0,2.131.843a5.657,5.657,0,0,0-.905.783A4.393,4.393,0,0,0,0,4.809C.085,11.6,1.25,6.985,4.186,6.584c0,0,3.871,3.738,10.812,2.67a10.87,10.87,0,0,0,4.962-2.142,8.328,8.328,0,0,0,.271-1.746A10.585,10.585,0,0,1,15.681,7.324Z" transform="translate(0 1.866)" fill="#00222d"/>
                </g>
                <path id="Trazado_8982" data-name="Trazado 8982" d="M0,0A2.769,2.769,0,0,0,2.827,1.67,2.455,2.455,0,0,0,5.489,0Z" transform="translate(19.103 34.916)" fill="#e5e2d1"/>
              </g>
            </g>
            <path id="Trazado_8988" data-name="Trazado 8988" d="M22.483,0A22.483,22.483,0,1,1,0,22.483,22.483,22.483,0,0,1,22.483,0Z" transform="translate(0 0)" fill="none" stroke="#334f87" stroke-width="2"/>
          </g>
        </g>
        <g id="Grupo_8745" data-name="Grupo 8745" transform="translate(73.799 25.967)">
          <g id="Grupo_8696" data-name="Grupo 8696" transform="translate(0 22.552)">
            <rect id="Rectángulo_2229" data-name="Rectángulo 2229" width="27.062" height="2.819" transform="translate(0 5.317)" fill="#47bbe5"/>
            <rect id="Rectángulo_2266" data-name="Rectángulo 2266" width="27.062" height="2.819" transform="translate(0 0)" fill="#47bbe5"/>
            <rect id="Rectángulo_2230" data-name="Rectángulo 2230" width="27.062" height="2.819" transform="translate(0 10.955)" fill="#47bbe5"/>
            <rect id="Rectángulo_2231" data-name="Rectángulo 2231" width="27.062" height="2.819" transform="translate(0 16.593)" fill="#47bbe5"/>
          </g>
          <g id="Grupo_8697" data-name="Grupo 8697" transform="translate(0 0)">
            <rect id="Rectángulo_2232" data-name="Rectángulo 2232" width="54.124" height="2.819" transform="translate(0)" fill="#47bbe5"/>
            <rect id="Rectángulo_2233" data-name="Rectángulo 2233" width="54.124" height="2.819" transform="translate(0 5.638)" fill="#47bbe5"/>
            <rect id="Rectángulo_2234" data-name="Rectángulo 2234" width="54.124" height="2.819" transform="translate(0 11.276)" fill="#47bbe5"/>
            <rect id="Rectángulo_2267" data-name="Rectángulo 2267" width="54.124" height="2.819" transform="translate(0 54.875)" fill="#47bbe5"/>
          </g>
          <g id="Grupo_8751" data-name="Grupo 8751" transform="translate(0 0)">
            <rect id="Rectángulo_2232-2" data-name="Rectángulo 2232" width="54.124" height="2.819" transform="translate(0)" fill="#47bbe5"/>
            <rect id="Rectángulo_2233-2" data-name="Rectángulo 2233" width="54.124" height="2.819" transform="translate(0 5.638)" fill="#47bbe5"/>
            <rect id="Rectángulo_2234-2" data-name="Rectángulo 2234" width="54.124" height="2.819" transform="translate(0 11.276)" fill="#47bbe5"/>
            <rect id="Rectángulo_2267-2" data-name="Rectángulo 2267" width="54.124" height="2.819" transform="translate(0 54.875)" fill="#47bbe5"/>
            <rect id="Rectángulo_2268" data-name="Rectángulo 2268" width="54.124" height="2.819" transform="translate(0 49.558)" fill="#47bbe5"/>
          </g>
        </g>
        <path id="Intersección_1" data-name="Intersección 1" d="M0,15.022V9.37C0,4.2,4.7,0,10.483,0H137.356c5.781,0,10.482,4.2,10.482,9.37v5.652Z" transform="translate(0 0)" fill="#47bbe5"/>
        <g id="Grupo_8747" data-name="Grupo 8747" transform="translate(17.168 75.034)">
          <g id="Grupo_8715" data-name="Grupo 8715">
            <g id="Grupo_8703" data-name="Grupo 8703">
              <rect id="Rectángulo_2236" data-name="Rectángulo 2236" width="1.399" height="10.043" fill="#334f87"/>
            </g>
            <g id="Grupo_8704" data-name="Grupo 8704" transform="translate(1.959 0)">
              <rect id="Rectángulo_2237" data-name="Rectángulo 2237" width="2.146" height="10.043" fill="#334f87"/>
            </g>
            <g id="Grupo_8705" data-name="Grupo 8705" transform="translate(4.58 0)">
              <rect id="Rectángulo_2238" data-name="Rectángulo 2238" width="0.644" height="10.043" fill="#334f87"/>
            </g>
            <g id="Grupo_8706" data-name="Grupo 8706" transform="translate(5.975 0)">
              <rect id="Rectángulo_2239" data-name="Rectángulo 2239" width="0.644" height="10.043" fill="#334f87"/>
            </g>
            <g id="Grupo_8707" data-name="Grupo 8707" transform="translate(7.323 0)">
              <rect id="Rectángulo_2240" data-name="Rectángulo 2240" width="1.399" height="10.043" fill="#334f87"/>
            </g>
            <g id="Grupo_8708" data-name="Grupo 8708" transform="translate(9.282 0)">
              <rect id="Rectángulo_2241" data-name="Rectángulo 2241" width="2.146" height="10.043" fill="#334f87"/>
            </g>
            <g id="Grupo_8709" data-name="Grupo 8709" transform="translate(11.904 0)">
              <rect id="Rectángulo_2242" data-name="Rectángulo 2242" width="0.644" height="10.043" fill="#334f87"/>
            </g>
            <g id="Grupo_8710" data-name="Grupo 8710" transform="translate(13.299 0)">
              <rect id="Rectángulo_2243" data-name="Rectángulo 2243" width="0.644" height="10.043" fill="#334f87"/>
            </g>
            <g id="Grupo_8711" data-name="Grupo 8711" transform="translate(19.96 0)">
              <rect id="Rectángulo_2244" data-name="Rectángulo 2244" width="1.399" height="10.043" fill="#334f87"/>
            </g>
            <g id="Grupo_8712" data-name="Grupo 8712" transform="translate(17.254 0)">
              <rect id="Rectángulo_2245" data-name="Rectángulo 2245" width="2.146" height="10.043" fill="#334f87"/>
            </g>
            <g id="Grupo_8713" data-name="Grupo 8713" transform="translate(16.135 0)">
              <rect id="Rectángulo_2246" data-name="Rectángulo 2246" width="0.644" height="10.043" fill="#334f87"/>
            </g>
            <g id="Grupo_8714" data-name="Grupo 8714" transform="translate(14.74 0)">
              <rect id="Rectángulo_2247" data-name="Rectángulo 2247" width="0.644" height="10.043" fill="#334f87"/>
            </g>
          </g>
          <g id="Grupo_8726" data-name="Grupo 8726" transform="translate(22.086 0)">
            <g id="Grupo_8716" data-name="Grupo 8716">
              <rect id="Rectángulo_2248" data-name="Rectángulo 2248" width="1.399" height="10.043" fill="#334f87"/>
            </g>
            <g id="Grupo_8717" data-name="Grupo 8717" transform="translate(1.959 0)">
              <rect id="Rectángulo_2249" data-name="Rectángulo 2249" width="2.146" height="10.043" fill="#334f87"/>
            </g>
            <g id="Grupo_8718" data-name="Grupo 8718" transform="translate(4.58 0)">
              <rect id="Rectángulo_2250" data-name="Rectángulo 2250" width="0.644" height="10.043" fill="#334f87"/>
            </g>
            <g id="Grupo_8719" data-name="Grupo 8719" transform="translate(5.975 0)">
              <rect id="Rectángulo_2251" data-name="Rectángulo 2251" width="0.644" height="10.043" fill="#334f87"/>
            </g>
            <g id="Grupo_8720" data-name="Grupo 8720" transform="translate(7.323 0)">
              <rect id="Rectángulo_2252" data-name="Rectángulo 2252" width="1.399" height="10.043" fill="#334f87"/>
            </g>
            <g id="Grupo_8721" data-name="Grupo 8721" transform="translate(9.282 0)">
              <rect id="Rectángulo_2253" data-name="Rectángulo 2253" width="2.146" height="10.043" fill="#334f87"/>
            </g>
            <g id="Grupo_8722" data-name="Grupo 8722" transform="translate(11.904 0)">
              <rect id="Rectángulo_2254" data-name="Rectángulo 2254" width="0.644" height="10.043" fill="#334f87"/>
            </g>
            <g id="Grupo_8723" data-name="Grupo 8723" transform="translate(13.299 0)">
              <rect id="Rectángulo_2255" data-name="Rectángulo 2255" width="0.644" height="10.043" fill="#334f87"/>
            </g>
            <g id="Grupo_8724" data-name="Grupo 8724" transform="translate(16.135 0)">
              <rect id="Rectángulo_2256" data-name="Rectángulo 2256" width="0.644" height="10.043" fill="#334f87"/>
            </g>
            <g id="Grupo_8725" data-name="Grupo 8725" transform="translate(14.74 0)">
              <rect id="Rectángulo_2257" data-name="Rectángulo 2257" width="0.644" height="10.043" fill="#334f87"/>
            </g>
          </g>
        </g>
        <g id="Grupo_8750" data-name="Grupo 8750" transform="matrix(0.996, -0.087, 0.087, 0.996, 104.141, 46.374)">
          <g id="Grupo_8748" data-name="Grupo 8748" transform="translate(5.033 2.059) rotate(9)">
            <g id="Grupo_8738" data-name="Grupo 8738" transform="translate(1.407 1.407)">
              <circle id="Elipse_22" data-name="Elipse 22" cx="6.016" cy="6.016" r="6.016" transform="translate(0 4.605) rotate(-22.5)" fill="#c9bcbc"/>
            </g>
            <g id="Grupo_8739" data-name="Grupo 8739" transform="translate(0 0)">
              <path id="Trazado_8985" data-name="Trazado 8985" d="M9.267,0a9.267,9.267,0,1,0,9.267,9.267A9.267,9.267,0,0,0,9.267,0Zm0,16.569a7.3,7.3,0,1,1,7.3-7.3A7.31,7.31,0,0,1,9.267,16.569Z" fill="#c9bcbc"/>
            </g>
          </g>
          <g id="Grupo_8749" data-name="Grupo 8749" transform="translate(3.479 0) rotate(9)">
            <path id="Trazado_8986" data-name="Trazado 8986" d="M10.806,22.239A11.149,11.149,0,0,1,8.818,22l.176-.838a10.41,10.41,0,0,0,1.836.217Zm2.437-.2-.162-.842a10.2,10.2,0,0,0,1.775-.512l.311.8A11.016,11.016,0,0,1,13.243,22.042Zm-6.749-.8a11.121,11.121,0,0,1-1.739-.994l.49-.7a10.3,10.3,0,0,0,1.6.917Zm10.84-.885-.478-.711a10.329,10.329,0,0,0,1.436-1.165l.6.615A11.219,11.219,0,0,1,17.334,20.354ZM2.915,18.635A11.231,11.231,0,0,1,1.7,17.045l.725-.458a10.371,10.371,0,0,0,1.123,1.468Zm17.531-1.429-.716-.47a10.34,10.34,0,0,0,.871-1.631l.789.334A11.108,11.108,0,0,1,20.446,17.206ZM.627,14.846a11.1,11.1,0,0,1-.5-1.939l.845-.138a10.268,10.268,0,0,0,.461,1.789Zm21.461-1.751-.843-.152a10.4,10.4,0,0,0,.164-1.841h.857A11.231,11.231,0,0,1,22.088,13.095ZM.856,10.514,0,10.466A11.248,11.248,0,0,1,.291,8.485l.834.2A10.316,10.316,0,0,0,.856,10.514Zm20.5-.5A10.27,10.27,0,0,0,21,8.2l.822-.241a11.126,11.126,0,0,1,.387,1.964ZM1.893,6.562l-.769-.378a11.082,11.082,0,0,1,1.044-1.71l.688.51A10.328,10.328,0,0,0,1.893,6.562Zm18.233-.44a10.336,10.336,0,0,0-1.038-1.53l.664-.542a11.2,11.2,0,0,1,1.124,1.656ZM4.39,3.328,3.829,2.68A11.13,11.13,0,0,1,5.453,1.51l.437.737A10.314,10.314,0,0,0,4.39,3.328Zm13.085-.317A10.293,10.293,0,0,0,15.925,2l.4-.758A11.194,11.194,0,0,1,18,2.337ZM7.946,1.317,7.682.5A11.129,11.129,0,0,1,9.635.058l.113.85A10.261,10.261,0,0,0,7.946,1.317Zm5.879-.142a10.315,10.315,0,0,0-1.82-.321L12.078,0A11.172,11.172,0,0,1,14.05.348Z" transform="translate(0 0)" fill="#c9bcbc"/>
          </g>
        </g>
      </g>
      <path id="Trazado_8990" data-name="Trazado 8990" d="M137.355,93.28H10.483C4.7,93.28,0,89.077,0,83.909V9.37C0,4.2,4.7,0,10.483,0H137.355c5.781,0,10.483,4.2,10.483,9.37V83.909C147.838,89.077,143.137,93.28,137.355,93.28ZM10.483,2.372c-4.358,0-7.905,3.14-7.905,7V83.909c0,3.861,3.547,7,7.905,7H137.355c4.359,0,7.905-3.138,7.905-7V9.37c0-3.859-3.547-7-7.905-7Z" transform="translate(1792.972 250.373)" fill="#334f87"/>
    </g>
    <g id="Grupo_8830" data-name="Grupo 8830">
      <g id="Grupo_8754" data-name="Grupo 8754" transform="matrix(0.97, -0.242, 0.242, 0.97, -1709.857, 436.316)">
        <g id="Grupo_8752-2" data-name="Grupo 8752" transform="translate(-344 -110)">
          <g id="Grupo_8669-2" data-name="Grupo 8669" transform="translate(2136.972 360.373)">
            <path id="Trazado_8920-2" data-name="Trazado 8920" d="M137.007,77.989c0,4.262-3.883,7.716-8.669,7.716H8.669C3.878,85.7,0,82.25,0,77.989V7.716C0,3.454,3.878,0,8.669,0H128.337c4.787,0,8.669,3.454,8.669,7.716Z" transform="translate(1.009 1.007)" fill="#fff"/>
            <path id="Trazado_8921-2" data-name="Trazado 8921" d="M129.166,87.719H9.858C4.421,87.719,0,83.767,0,78.907V8.812C0,3.952,4.421,0,9.858,0H129.166c5.437,0,9.858,3.952,9.858,8.812v70.1C139.024,83.767,134.6,87.719,129.166,87.719ZM9.858,2.23c-4.1,0-7.434,2.953-7.434,6.581v70.1c0,3.631,3.335,6.581,7.434,6.581H129.166c4.1,0,7.434-2.951,7.434-6.581V8.812c0-3.629-3.335-6.581-7.434-6.581Z" fill="#334f87"/>
          </g>
          <g id="Grupo_8745-2" data-name="Grupo 8745" transform="translate(2155.195 384.37)">
            <g id="Grupo_8696-2" data-name="Grupo 8696" transform="translate(0 25.207)">
              <rect id="Rectángulo_2229-2" data-name="Rectángulo 2229" width="50.449" height="2.651" transform="translate(0)" fill="#6fc5e2"/>
              <rect id="Rectángulo_2266-2" data-name="Rectángulo 2266" width="50.449" height="2.651" transform="translate(0 -5)" fill="#6fc5e2"/>
              <rect id="Rectángulo_2230-2" data-name="Rectángulo 2230" width="25.449" height="2.651" transform="translate(0 5.302)" fill="#6fc5e2"/>
              <rect id="Rectángulo_2231-2" data-name="Rectángulo 2231" width="25.449" height="2.651" transform="translate(0 10.604)" fill="#6fc5e2"/>
            </g>
            <g id="Grupo_8697-2" data-name="Grupo 8697" transform="translate(0 -1)">
              <rect id="Rectángulo_2232-3" data-name="Rectángulo 2232" width="50.897" height="2.651" transform="translate(0)" fill="#6fc5e2"/>
              <rect id="Rectángulo_2233-3" data-name="Rectángulo 2233" width="50.897" height="2.651" transform="translate(0 5.302)" fill="#6fc5e2"/>
              <rect id="Rectángulo_2234-3" data-name="Rectángulo 2234" width="50.897" height="2.651" transform="translate(0 10.604)" fill="#6fc5e2"/>
            </g>
          </g>
          <path id="Intersección_1-2" data-name="Intersección 1" d="M5.972,24.5V19.185c0-4.86,4.421-8.812,9.858-8.812H135.139c5.437,0,9.859,3.952,9.859,8.812V24.5Z" transform="translate(2131 350)" fill="#919191"/>
          <g id="Grupo_8747-2" data-name="Grupo 8747" transform="translate(2153.116 430.933)">
            <g id="Grupo_8715-2" data-name="Grupo 8715">
              <g id="Grupo_8703-2" data-name="Grupo 8703">
                <rect id="Rectángulo_2236-2" data-name="Rectángulo 2236" width="1.316" height="9.445" fill="#d3d3d3"/>
              </g>
              <g id="Grupo_8704-2" data-name="Grupo 8704" transform="translate(1.842 0)">
                <rect id="Rectángulo_2237-2" data-name="Rectángulo 2237" width="2.018" height="9.445" fill="#d3d3d3"/>
              </g>
              <g id="Grupo_8705-2" data-name="Grupo 8705" transform="translate(4.307 0)">
                <rect id="Rectángulo_2238-2" data-name="Rectángulo 2238" width="0.605" height="9.445" fill="#d3d3d3"/>
              </g>
              <g id="Grupo_8706-2" data-name="Grupo 8706" transform="translate(5.619 0)">
                <rect id="Rectángulo_2239-2" data-name="Rectángulo 2239" width="0.605" height="9.445" fill="#d3d3d3"/>
              </g>
              <g id="Grupo_8707-2" data-name="Grupo 8707" transform="translate(6.887 0)">
                <rect id="Rectángulo_2240-2" data-name="Rectángulo 2240" width="1.316" height="9.445" fill="#d3d3d3"/>
              </g>
              <g id="Grupo_8708-2" data-name="Grupo 8708" transform="translate(8.729 0)">
                <rect id="Rectángulo_2241-2" data-name="Rectángulo 2241" width="2.018" height="9.445" fill="#d3d3d3"/>
              </g>
              <g id="Grupo_8709-2" data-name="Grupo 8709" transform="translate(11.194 0)">
                <rect id="Rectángulo_2242-2" data-name="Rectángulo 2242" width="0.605" height="9.445" fill="#d3d3d3"/>
              </g>
              <g id="Grupo_8710-2" data-name="Grupo 8710" transform="translate(12.506 0)">
                <rect id="Rectángulo_2243-2" data-name="Rectángulo 2243" width="0.606" height="9.445" fill="#d3d3d3"/>
              </g>
              <g id="Grupo_8711-2" data-name="Grupo 8711" transform="translate(18.77 0)">
                <rect id="Rectángulo_2244-2" data-name="Rectángulo 2244" width="1.316" height="9.445" fill="#d3d3d3"/>
              </g>
              <g id="Grupo_8712-2" data-name="Grupo 8712" transform="translate(16.226 0)">
                <rect id="Rectángulo_2245-2" data-name="Rectángulo 2245" width="2.018" height="9.445" fill="#d3d3d3"/>
              </g>
              <g id="Grupo_8713-2" data-name="Grupo 8713" transform="translate(15.173 0)">
                <rect id="Rectángulo_2246-2" data-name="Rectángulo 2246" width="0.605" height="9.445" fill="#d3d3d3"/>
              </g>
              <g id="Grupo_8714-2" data-name="Grupo 8714" transform="translate(13.861 0)">
                <rect id="Rectángulo_2247-2" data-name="Rectángulo 2247" width="0.606" height="9.445" fill="#d3d3d3"/>
              </g>
            </g>
            <g id="Grupo_8726-2" data-name="Grupo 8726" transform="translate(20.77 0)">
              <g id="Grupo_8716-2" data-name="Grupo 8716">
                <rect id="Rectángulo_2248-2" data-name="Rectángulo 2248" width="1.316" height="9.445" fill="#d3d3d3"/>
              </g>
              <g id="Grupo_8717-2" data-name="Grupo 8717" transform="translate(1.842 0)">
                <rect id="Rectángulo_2249-2" data-name="Rectángulo 2249" width="2.018" height="9.445" fill="#d3d3d3"/>
              </g>
              <g id="Grupo_8718-2" data-name="Grupo 8718" transform="translate(4.307 0)">
                <rect id="Rectángulo_2250-2" data-name="Rectángulo 2250" width="0.606" height="9.445" fill="#d3d3d3"/>
              </g>
              <g id="Grupo_8719-2" data-name="Grupo 8719" transform="translate(5.619 0)">
                <rect id="Rectángulo_2251-2" data-name="Rectángulo 2251" width="0.605" height="9.445" fill="#d3d3d3"/>
              </g>
              <g id="Grupo_8720-2" data-name="Grupo 8720" transform="translate(6.887 0)">
                <rect id="Rectángulo_2252-2" data-name="Rectángulo 2252" width="1.316" height="9.445" fill="#d3d3d3"/>
              </g>
              <g id="Grupo_8721-2" data-name="Grupo 8721" transform="translate(8.729 0)">
                <rect id="Rectángulo_2253-2" data-name="Rectángulo 2253" width="2.018" height="9.445" fill="#d3d3d3"/>
              </g>
              <g id="Grupo_8722-2" data-name="Grupo 8722" transform="translate(11.194 0)">
                <rect id="Rectángulo_2254-2" data-name="Rectángulo 2254" width="0.606" height="9.445" fill="#d3d3d3"/>
              </g>
              <g id="Grupo_8723-2" data-name="Grupo 8723" transform="translate(12.506 0)">
                <rect id="Rectángulo_2255-2" data-name="Rectángulo 2255" width="0.605" height="9.445" fill="#d3d3d3"/>
              </g>
              <g id="Grupo_8724-2" data-name="Grupo 8724" transform="translate(15.173 0)">
                <rect id="Rectángulo_2256-2" data-name="Rectángulo 2256" width="0.605" height="9.445" fill="#d3d3d3"/>
              </g>
              <g id="Grupo_8725-2" data-name="Grupo 8725" transform="translate(13.861 0)">
                <rect id="Rectángulo_2257-2" data-name="Rectángulo 2257" width="0.606" height="9.445" fill="#d3d3d3"/>
              </g>
            </g>
          </g>
          <g id="Grupo_8826" data-name="Grupo 8826" transform="translate(2190.224 430.91)">
            <g id="Grupo_8715-3" data-name="Grupo 8715">
              <g id="Grupo_8703-3" data-name="Grupo 8703">
                <rect id="Rectángulo_2236-3" data-name="Rectángulo 2236" width="1.316" height="9.445" fill="#d3d3d3"/>
              </g>
              <g id="Grupo_8704-3" data-name="Grupo 8704" transform="translate(1.842 0)">
                <rect id="Rectángulo_2237-3" data-name="Rectángulo 2237" width="2.018" height="9.445" fill="#d3d3d3"/>
              </g>
              <g id="Grupo_8705-3" data-name="Grupo 8705" transform="translate(4.307 0)">
                <rect id="Rectángulo_2238-3" data-name="Rectángulo 2238" width="0.605" height="9.445" fill="#d3d3d3"/>
              </g>
              <g id="Grupo_8706-3" data-name="Grupo 8706" transform="translate(5.619 0)">
                <rect id="Rectángulo_2239-3" data-name="Rectángulo 2239" width="0.605" height="9.445" fill="#d3d3d3"/>
              </g>
              <g id="Grupo_8707-3" data-name="Grupo 8707" transform="translate(6.887 0)">
                <rect id="Rectángulo_2240-3" data-name="Rectángulo 2240" width="1.316" height="9.445" fill="#d3d3d3"/>
              </g>
              <g id="Grupo_8708-3" data-name="Grupo 8708" transform="translate(8.729 0)">
                <rect id="Rectángulo_2241-3" data-name="Rectángulo 2241" width="2.018" height="9.445" fill="#d3d3d3"/>
              </g>
              <g id="Grupo_8709-3" data-name="Grupo 8709" transform="translate(11.194 0)">
                <rect id="Rectángulo_2242-3" data-name="Rectángulo 2242" width="0.605" height="9.445" fill="#d3d3d3"/>
              </g>
              <g id="Grupo_8710-3" data-name="Grupo 8710" transform="translate(12.506 0)">
                <rect id="Rectángulo_2243-3" data-name="Rectángulo 2243" width="0.606" height="9.445" fill="#d3d3d3"/>
              </g>
              <g id="Grupo_8711-3" data-name="Grupo 8711" transform="translate(18.77 0)">
                <rect id="Rectángulo_2244-3" data-name="Rectángulo 2244" width="1.316" height="9.445" fill="#d3d3d3"/>
              </g>
              <g id="Grupo_8712-3" data-name="Grupo 8712" transform="translate(16.226 0)">
                <rect id="Rectángulo_2245-3" data-name="Rectángulo 2245" width="2.018" height="9.445" fill="#d3d3d3"/>
              </g>
              <g id="Grupo_8713-3" data-name="Grupo 8713" transform="translate(15.173 0)">
                <rect id="Rectángulo_2246-3" data-name="Rectángulo 2246" width="0.605" height="9.445" fill="#d3d3d3"/>
              </g>
              <g id="Grupo_8714-3" data-name="Grupo 8714" transform="translate(13.861 0)">
                <rect id="Rectángulo_2247-3" data-name="Rectángulo 2247" width="0.606" height="9.445" fill="#d3d3d3"/>
              </g>
            </g>
            <g id="Grupo_8726-3" data-name="Grupo 8726" transform="translate(20.77 0)">
              <g id="Grupo_8716-3" data-name="Grupo 8716">
                <rect id="Rectángulo_2248-3" data-name="Rectángulo 2248" width="1.316" height="9.445" fill="#d3d3d3"/>
              </g>
              <g id="Grupo_8717-3" data-name="Grupo 8717" transform="translate(1.842 0)">
                <rect id="Rectángulo_2249-3" data-name="Rectángulo 2249" width="2.018" height="9.445" fill="#d3d3d3"/>
              </g>
              <g id="Grupo_8718-3" data-name="Grupo 8718" transform="translate(4.307 0)">
                <rect id="Rectángulo_2250-3" data-name="Rectángulo 2250" width="0.606" height="9.445" fill="#d3d3d3"/>
              </g>
              <g id="Grupo_8719-3" data-name="Grupo 8719" transform="translate(5.619 0)">
                <rect id="Rectángulo_2251-3" data-name="Rectángulo 2251" width="0.605" height="9.445" fill="#d3d3d3"/>
              </g>
              <g id="Grupo_8720-3" data-name="Grupo 8720" transform="translate(6.887 0)">
                <rect id="Rectángulo_2252-3" data-name="Rectángulo 2252" width="1.316" height="9.445" fill="#d3d3d3"/>
              </g>
              <g id="Grupo_8721-3" data-name="Grupo 8721" transform="translate(8.729 0)">
                <rect id="Rectángulo_2253-3" data-name="Rectángulo 2253" width="2.018" height="9.445" fill="#d3d3d3"/>
              </g>
              <g id="Grupo_8722-3" data-name="Grupo 8722" transform="translate(11.194 0)">
                <rect id="Rectángulo_2254-3" data-name="Rectángulo 2254" width="0.606" height="9.445" fill="#d3d3d3"/>
              </g>
              <g id="Grupo_8723-3" data-name="Grupo 8723" transform="translate(12.506 0)">
                <rect id="Rectángulo_2255-3" data-name="Rectángulo 2255" width="0.605" height="9.445" fill="#d3d3d3"/>
              </g>
              <g id="Grupo_8724-3" data-name="Grupo 8724" transform="translate(15.173 0)">
                <rect id="Rectángulo_2256-3" data-name="Rectángulo 2256" width="0.605" height="9.445" fill="#d3d3d3"/>
              </g>
              <g id="Grupo_8725-3" data-name="Grupo 8725" transform="translate(13.861 0)">
                <rect id="Rectángulo_2257-3" data-name="Rectángulo 2257" width="0.606" height="9.445" fill="#d3d3d3"/>
              </g>
            </g>
          </g>
          <g id="Grupo_8827" data-name="Grupo 8827" transform="translate(2227.332 430.886)">
            <g id="Grupo_8715-4" data-name="Grupo 8715">
              <g id="Grupo_8703-4" data-name="Grupo 8703">
                <rect id="Rectángulo_2236-4" data-name="Rectángulo 2236" width="1.316" height="9.445" fill="#d3d3d3"/>
              </g>
              <g id="Grupo_8704-4" data-name="Grupo 8704" transform="translate(1.842 0)">
                <rect id="Rectángulo_2237-4" data-name="Rectángulo 2237" width="2.018" height="9.445" fill="#d3d3d3"/>
              </g>
              <g id="Grupo_8705-4" data-name="Grupo 8705" transform="translate(4.307 0)">
                <rect id="Rectángulo_2238-4" data-name="Rectángulo 2238" width="0.605" height="9.445" fill="#d3d3d3"/>
              </g>
              <g id="Grupo_8706-4" data-name="Grupo 8706" transform="translate(5.619 0)">
                <rect id="Rectángulo_2239-4" data-name="Rectángulo 2239" width="0.605" height="9.445" fill="#d3d3d3"/>
              </g>
              <g id="Grupo_8707-4" data-name="Grupo 8707" transform="translate(6.887 0)">
                <rect id="Rectángulo_2240-4" data-name="Rectángulo 2240" width="1.316" height="9.445" fill="#d3d3d3"/>
              </g>
              <g id="Grupo_8708-4" data-name="Grupo 8708" transform="translate(8.729 0)">
                <rect id="Rectángulo_2241-4" data-name="Rectángulo 2241" width="2.018" height="9.445" fill="#d3d3d3"/>
              </g>
              <g id="Grupo_8709-4" data-name="Grupo 8709" transform="translate(11.194 0)">
                <rect id="Rectángulo_2242-4" data-name="Rectángulo 2242" width="0.605" height="9.445" fill="#d3d3d3"/>
              </g>
              <g id="Grupo_8710-4" data-name="Grupo 8710" transform="translate(12.506 0)">
                <rect id="Rectángulo_2243-4" data-name="Rectángulo 2243" width="0.606" height="9.445" fill="#d3d3d3"/>
              </g>
              <g id="Grupo_8711-4" data-name="Grupo 8711" transform="translate(18.77 0)">
                <rect id="Rectángulo_2244-4" data-name="Rectángulo 2244" width="1.316" height="9.445" fill="#d3d3d3"/>
              </g>
              <g id="Grupo_8712-4" data-name="Grupo 8712" transform="translate(16.226 0)">
                <rect id="Rectángulo_2245-4" data-name="Rectángulo 2245" width="2.018" height="9.445" fill="#d3d3d3"/>
              </g>
              <g id="Grupo_8713-4" data-name="Grupo 8713" transform="translate(15.173 0)">
                <rect id="Rectángulo_2246-4" data-name="Rectángulo 2246" width="0.605" height="9.445" fill="#d3d3d3"/>
              </g>
              <g id="Grupo_8714-4" data-name="Grupo 8714" transform="translate(13.861 0)">
                <rect id="Rectángulo_2247-4" data-name="Rectángulo 2247" width="0.606" height="9.445" fill="#d3d3d3"/>
              </g>
            </g>
            <g id="Grupo_8726-4" data-name="Grupo 8726" transform="translate(20.77 0)">
              <g id="Grupo_8716-4" data-name="Grupo 8716">
                <rect id="Rectángulo_2248-4" data-name="Rectángulo 2248" width="1.316" height="9.445" fill="#d3d3d3"/>
              </g>
              <g id="Grupo_8717-4" data-name="Grupo 8717" transform="translate(1.842 0)">
                <rect id="Rectángulo_2249-4" data-name="Rectángulo 2249" width="2.018" height="9.445" fill="#d3d3d3"/>
              </g>
              <g id="Grupo_8718-4" data-name="Grupo 8718" transform="translate(4.307 0)">
                <rect id="Rectángulo_2250-4" data-name="Rectángulo 2250" width="0.606" height="9.445" fill="#d3d3d3"/>
              </g>
              <g id="Grupo_8719-4" data-name="Grupo 8719" transform="translate(5.619 0)">
                <rect id="Rectángulo_2251-4" data-name="Rectángulo 2251" width="0.605" height="9.445" fill="#d3d3d3"/>
              </g>
              <g id="Grupo_8720-4" data-name="Grupo 8720" transform="translate(6.887 0)">
                <rect id="Rectángulo_2252-4" data-name="Rectángulo 2252" width="1.316" height="9.445" fill="#d3d3d3"/>
              </g>
              <g id="Grupo_8721-4" data-name="Grupo 8721" transform="translate(8.729 0)">
                <rect id="Rectángulo_2253-4" data-name="Rectángulo 2253" width="2.018" height="9.445" fill="#d3d3d3"/>
              </g>
              <g id="Grupo_8722-4" data-name="Grupo 8722" transform="translate(11.194 0)">
                <rect id="Rectángulo_2254-4" data-name="Rectángulo 2254" width="0.606" height="9.445" fill="#d3d3d3"/>
              </g>
              <g id="Grupo_8723-4" data-name="Grupo 8723" transform="translate(12.506 0)">
                <rect id="Rectángulo_2255-4" data-name="Rectángulo 2255" width="0.605" height="9.445" fill="#d3d3d3"/>
              </g>
              <g id="Grupo_8724-4" data-name="Grupo 8724" transform="translate(15.173 0)">
                <rect id="Rectángulo_2256-4" data-name="Rectángulo 2256" width="0.605" height="9.445" fill="#d3d3d3"/>
              </g>
              <g id="Grupo_8725-4" data-name="Grupo 8725" transform="translate(13.861 0)">
                <rect id="Rectángulo_2257-4" data-name="Rectángulo 2257" width="0.606" height="9.445" fill="#d3d3d3"/>
              </g>
            </g>
          </g>
        </g>
        <path id="Trazado_8990-2" data-name="Trazado 8990" d="M129.166,87.719H9.858C4.421,87.719,0,83.767,0,78.907V8.812C0,3.952,4.421,0,9.858,0H129.166c5.437,0,9.858,3.952,9.858,8.812v70.1C139.024,83.767,134.6,87.719,129.166,87.719ZM9.858,2.23c-4.1,0-7.434,2.953-7.434,6.581v70.1c0,3.631,3.335,6.581,7.434,6.581H129.166c4.1,0,7.434-2.951,7.434-6.581V8.812c0-3.629-3.335-6.581-7.434-6.581Z" transform="translate(1792.972 250.373)" fill="#919191"/>
      </g>
      <g id="Grupo_8828" data-name="Grupo 8828" transform="translate(408.738 -120.926) rotate(-16)">
        <path id="Trazado_9138" data-name="Trazado 9138" d="M-275.093,292.345q3.071.772,6.142,1.547c.11.028.215.078.323.115.516.179.776.54.585,1.062s-.607.583-1.131.428a44.4,44.4,0,0,0-4.709-1.3,21.543,21.543,0,0,0-7.88.123,11.549,11.549,0,0,0-2.526,1.06c-.552.255-1.072.39-1.371-.295-.287-.656.224-.886.686-1.165a12.677,12.677,0,0,1,5.568-1.576Z" transform="translate(-23.291 0)" fill="#d3d3d3"/>
        <path id="Trazado_9139" data-name="Trazado 9139" d="M-247.45,486.5c-.179-.328-.559-.7-.5-.976A20.115,20.115,0,0,1-246.9,481.5c.6-1.4,1.7-1.7,3.15-1.224a5.231,5.231,0,0,1,2.7,2.018,5.445,5.445,0,0,1,.774,1.124,1.488,1.488,0,0,1,.018,1.19c-.368.457-.881.253-1.235-.183-.4-.488-.764-1-1.169-1.484a5.526,5.526,0,0,0-.79-.785c-1.077-.853-1.848-.678-2.3.6-.3.854-.415,1.774-.663,2.65a6.961,6.961,0,0,1-.519,1.093Z" transform="translate(-54.558 -155.337)" fill="#d3d3d3"/>
        <path id="Trazado_9140" data-name="Trazado 9140" d="M-295.547,349.19c3.222.2,6.5,2.378,8.361,6.649a2.9,2.9,0,0,0,.738,1.015c1.373,1.178,2.778,2.318,4.175,3.467.444.365.9.771.433,1.357-.5.628-1.012.257-1.48-.13-.952-.786-1.91-1.565-2.86-2.353a10.163,10.163,0,0,1-2.934-3.593,8.766,8.766,0,0,0-11.029-4.314,8.861,8.861,0,0,0-5.423,10.617,8.4,8.4,0,0,1,.162,4.666,5.3,5.3,0,0,1-3.439,3.58.8.8,0,0,1-1.145-.414c-.217-.51.068-.839.561-1.07a4.162,4.162,0,0,0,2.532-5.344,12.121,12.121,0,0,1-.081-6.942C-305.575,352.043-301.388,349-295.547,349.19Z" transform="translate(-3.17 -47.031)" fill="#d3d3d3"/>
        <path id="Trazado_9141" data-name="Trazado 9141" d="M-284.2,367.094a7.322,7.322,0,0,1,6.711,4.607,7.578,7.578,0,0,0,2.1,3.088c1.606,1.434,3.252,2.823,4.881,4.23.217.188.539.332.63.567a1.2,1.2,0,0,1,.014.978.982.982,0,0,1-.943.18,10.568,10.568,0,0,1-1.71-1.3c-1.591-1.407-3.224-2.776-4.708-4.29a7.789,7.789,0,0,1-1.584-2.6,5.777,5.777,0,0,0-6.885-3.594,5.819,5.819,0,0,0-4.014,6.652,24.006,24.006,0,0,1,.755,7.245c-.3,3.15-2.248,4.521-4.709,5.224a1.05,1.05,0,0,1-.921-.476,1.167,1.167,0,0,1,.419-.958,4.818,4.818,0,0,1,1.177-.5,3.922,3.922,0,0,0,2.461-3.544,20.5,20.5,0,0,0-.665-6.222,7.376,7.376,0,0,1,5.132-8.963C-285.449,367.262-284.816,367.2-284.2,367.094Z" transform="translate(-15.966 -61.853)" fill="#d3d3d3"/>
        <path id="Trazado_9142" data-name="Trazado 9142" d="M-252.819,387.3a3.639,3.639,0,0,1,3.256,2.346,12.743,12.743,0,0,0,3.3,4.673c1.764,1.644,3.615,3.193,5.428,4.784.193.169.51.328.539.524.047.325-.014.915-.173.969a1.4,1.4,0,0,1-1.146-.112c-1.633-1.313-3.276-2.627-4.788-4.075a41.75,41.75,0,0,1-3.482-3.92,7.18,7.18,0,0,1-.958-1.909,2.477,2.477,0,0,0-3.169-1.728,2.448,2.448,0,0,0-1.423,3.378,13.851,13.851,0,0,0,3.54,5.54c2.308,2.235,4.763,4.316,7.133,6.488a1.516,1.516,0,0,1,.518.974c-.013.677-.778.856-1.438.293-2.138-1.829-4.3-3.634-6.344-5.566a18.216,18.216,0,0,1-4.913-7.185A4.071,4.071,0,0,1-252.819,387.3Z" transform="translate(-46.914 -78.573)" fill="#d3d3d3"/>
        <path id="Trazado_9143" data-name="Trazado 9143" d="M-299.987,330.073a12.092,12.092,0,0,1,10.869,5.835c.61.938,1.141,1.939,1.835,2.809.574.72,1.363,1.264,2,1.942.229.245.487.783.375.954-.173.266-.759.55-.982.441a5.413,5.413,0,0,1-1.858-1.313,39.866,39.866,0,0,1-2.422-3.552,11.059,11.059,0,0,0-7.125-5.277,12.31,12.31,0,0,0-14.824,9.849,13.652,13.652,0,0,0-.16,1.8c-.026.543-.174,1.031-.791,1.018-.643-.014-.841-.5-.819-1.092a13.433,13.433,0,0,1,2.172-7.065A13.559,13.559,0,0,1-299.987,330.073Z" transform="translate(0 -31.218)" fill="#d3d3d3"/>
        <path id="Trazado_9144" data-name="Trazado 9144" d="M-296.589,311.262a18.278,18.278,0,0,1,10.535,3.5,7.952,7.952,0,0,1,1.627,1.641c.171.233-.031.742-.063,1.125-.38-.055-.9.033-1.12-.185-3.634-3.679-8.153-4.7-13.1-4.384a13.1,13.1,0,0,0-7.467,2.776,10.808,10.808,0,0,0-1.5,1.525c-.348.413-.728.611-1.186.318-.531-.34-.44-.841-.115-1.276a12.178,12.178,0,0,1,5.713-3.978A18.636,18.636,0,0,1-296.589,311.262Z" transform="translate(-3.847 -15.653)" fill="#d3d3d3"/>
        <path id="Trazado_9145" data-name="Trazado 9145" d="M-226.48,417.38c-.006.816-.7,1.221-1.229.8-3.29-2.623-6.869-4.95-9.246-8.545a17.254,17.254,0,0,1-1.518-3.158,1.019,1.019,0,0,1,.434-.916,1.054,1.054,0,0,1,.967.371c1.481,4.164,4.846,6.657,8.105,9.247.673.535,1.372,1.039,2.031,1.59A2.768,2.768,0,0,1-226.48,417.38Z" transform="translate(-62.392 -93.669)" fill="#d3d3d3"/>
        <path id="Trazado_9146" data-name="Trazado 9146" d="M-270.777,453.909a9.693,9.693,0,0,1-1.992,5.905,6.781,6.781,0,0,1-1.967,1.453,1.036,1.036,0,0,1-.961-.364,1.035,1.035,0,0,1,.314-.978c1.88-.956,2.5-2.693,2.847-4.553a9.1,9.1,0,0,0-.013-2.55c-.058-.569-.006-1.008.6-1.122s.883.311.984.835C-270.87,453.042-270.824,453.556-270.777,453.909Z" transform="translate(-31.577 -131.847)" fill="#d3d3d3"/>
        <path id="Trazado_9147" data-name="Trazado 9147" d="M-160.066,353.569a3.21,3.21,0,0,1-.963.4,1.089,1.089,0,0,1-.867-.319,37.125,37.125,0,0,1-1.687-3.361.934.934,0,0,1,.281-.859c.215-.145.814-.129.909.024C-161.648,350.656-160.985,351.912-160.066,353.569Z" transform="translate(-124.354 -47.15)" fill="#d3d3d3"/>
        <path id="Trazado_9148" data-name="Trazado 9148" d="M-312.927,422.089c.407.425.71.614.823.882.309.735.541,1.5.8,2.26.159.469.079.94-.424,1.04a1.126,1.126,0,0,1-.986-.356,13.1,13.1,0,0,1-.87-2.678C-313.643,422.967-313.236,422.6-312.927,422.089Z" transform="translate(-0.248 -107.36)" fill="#d3d3d3"/>
      </g>
      <g id="Grupo_8829" data-name="Grupo 8829" transform="matrix(0.891, -0.454, 0.454, 0.891, 2134.021, -111.576)">
        <path id="Trazado_9149" data-name="Trazado 9149" d="M-1705.273-415.946a1.1,1.1,0,0,1,.248-.1c.383-.051.766-.112,1.152-.131,1.534-.075,3.07-.135,4.6-.2,1.785-.08,3.57-.174,5.356-.243,1.628-.062,3.257-.09,4.885-.148,1.8-.064,3.593-.145,5.389-.217,1.2-.048,2.406-.1,3.61-.141,1.334-.043,2.669-.073,4-.108a.328.328,0,0,0,.325-.176,1.213,1.213,0,0,1,.54-.527c.089-.051.179-.1.264-.163.106-.073.1-.152.011-.241-.172-.164-.187-.276-.044-.462a2,2,0,0,1,.28-.271c.073-.064.16-.113.234-.178.155-.134.147-.218-.027-.328-.073-.046-.152-.085-.229-.126a.346.346,0,0,1-.213-.322c0-.143-.08-.188-.2-.158-.238.058-.472.127-.708.191-.1.029-.211.055-.314.089a.36.36,0,0,1-.449-.137c-.166-.257-.35-.252-.611-.139a4.84,4.84,0,0,1-1.48.384c-.176.016-.356-.017-.534-.012a1.762,1.762,0,0,0-.429.053c-.261.074-.511.187-.773.254a.838.838,0,0,1-.707-.1.62.62,0,0,0-.508-.037,3.23,3.23,0,0,1-1.328.037,1.272,1.272,0,0,0-.5.076c-.3.074-.605.165-.91.24-.131.032-.2-.02-.2-.171-.006-.275-.075-.323-.346-.271-.566.108-1.13.233-1.7.321a4.359,4.359,0,0,1-.848.018c-.256-.011-.333-.121-.311-.374.024-.271.015-.283-.244-.338-.175-.037-.353-.065-.527-.111a.415.415,0,0,0-.406.107,4.775,4.775,0,0,1-.4.361c-.3.209-.6.411-.914.591a.419.419,0,0,1-.5-.116c-.079-.083-.026-.143.03-.194a6.293,6.293,0,0,1,.5-.425c.25-.183.515-.346.772-.519a.787.787,0,0,0,.36-.422.831.831,0,0,1,.252-.31c.095-.088.173-.045.2.076a1.713,1.713,0,0,1,.03.292.226.226,0,0,0,.226.246,5.281,5.281,0,0,0,1.917-.052,2.741,2.741,0,0,0,.936-.266c.092-.059.193.024.188.145a.351.351,0,0,1-.2.279c-.241.161-.472.337-.708.506l.026.061a10.454,10.454,0,0,0,1.074-.146c.533-.126,1.056-.3,1.582-.452.177-.052.351-.115.53-.159.047-.012.107.024.161.037-.02.058-.022.14-.062.169-.194.139-.4.266-.6.391-.146.09-.3.171-.448.257l.014.051a.745.745,0,0,0,.219-.04c.235-.123.468-.252.693-.393.175-.109.335-.243.508-.355a.435.435,0,0,1,.168-.026.538.538,0,0,1,.017.168c-.034.151-.081.3-.132.482a2,2,0,0,0,.336-.029c.624-.169,1.248-.342,1.869-.522a2.475,2.475,0,0,1,1.012-.127.327.327,0,0,0,.213-.092c.178-.152.341-.321.517-.475.082-.071.189-.2.286-.109a.4.4,0,0,1,.046.344,1.282,1.282,0,0,1-.264.405,5.072,5.072,0,0,1-.409.374l.032.061a1.529,1.529,0,0,0,.359-.021c.556-.168,1.111-.341,1.661-.529a2.925,2.925,0,0,1,1.127-.134.524.524,0,0,1,.124.045c-.122.269-.468.322-.58.62a.83.83,0,0,0,.118-.014c.566-.175,1.132-.351,1.7-.524.041-.012.119-.012.13.009a.177.177,0,0,1,0,.148c-.046.078-.118.141-.173.215-.109.149-.07.242.109.27a.457.457,0,0,1,.319.67,1.746,1.746,0,0,1-.327.383.562.562,0,0,0-.2.6.329.329,0,0,1-.166.388c-.168.111-.338.219-.5.335a1.208,1.208,0,0,0-.152.152l.017.051a1.787,1.787,0,0,0,.3.038c.376-.012.751-.034,1.126-.052a.446.446,0,0,1,.162,0c.064.023.173.08.169.1a.356.356,0,0,1-.12.22.622.622,0,0,1-.283.061c-.206.014-.414.018-.621.024a.461.461,0,0,0-.364.188,1.246,1.246,0,0,1-.525.449c-.106.04-.182.161-.3.271.216.071.239.228.3.383a1.848,1.848,0,0,0,.319.418c-.135.121-.286.267-.45.4a.55.55,0,0,0-.212.592.7.7,0,0,1-.1.549,6.443,6.443,0,0,1-.61.844c-.726.782-1.474,1.545-2.217,2.311a1.058,1.058,0,0,1-.355.231l.242-.356-.35.043-.031-.041a1.73,1.73,0,0,1,.2-.212,13.794,13.794,0,0,0,2.42-2.511,1.93,1.93,0,0,0,.406-1.085,1.188,1.188,0,0,1,.2-.484c.07-.118.143-.211.07-.357a.189.189,0,0,1,.036-.168c.092-.1.062-.16-.04-.217-.274-.154-.31-.375-.076-.591a2.727,2.727,0,0,1,.384-.239,1.057,1.057,0,0,0,.132-.121c-.048-.034-.093-.093-.144-.1a4.46,4.46,0,0,0-.57-.03c-2.321.051-4.643.069-6.961.168-3.577.153-7.152.319-10.732.369-1.624.023-3.243.133-4.864.237a54.594,54.594,0,0,1-6.353.152c-.052,0-.1-.009-.154-.014Zm18.755-4.208-.017-.049a3.546,3.546,0,0,0-.459.109,1,1,0,0,0-.275.19.133.133,0,0,0-.014.117.106.106,0,0,0,.092.041A1,1,0,0,0-1686.518-420.153Zm-2.651-.088c-.266-.05-.838.425-.928.746A4.339,4.339,0,0,0-1689.17-420.241Zm9.269.245.017.039.489-.2-.03-.069A.937.937,0,0,0-1679.9-420Z" transform="translate(-232.874 -119.816)" fill="#d3d3d3"/>
        <path id="Trazado_9150" data-name="Trazado 9150" d="M-1648.557-456.1c.205-.039.41-.089.617-.115a5.552,5.552,0,0,1,.683-.05c.208,0,.252.09.171.283-.034.082-.054.169-.1.306a2.16,2.16,0,0,1,.237-.088c.6-.134,1.208-.272,1.816-.392a.961.961,0,0,1,.338.062c-.04.1-.074.2-.12.3-.038.08-.09.154-.136.23l.025.049a1.608,1.608,0,0,0,.292-.027c.645-.179,1.287-.366,1.931-.546a1.6,1.6,0,0,1,.336-.058c.163-.009.235.088.173.24a2.122,2.122,0,0,1-.184.3.782.782,0,0,0,.532-.094c.382-.158.761-.324,1.142-.484.074-.031.153-.052.229-.078l.05.029-.177.517c-.01-.029-.008-.018,0-.009l.143.213a.97.97,0,0,1-.246.09.481.481,0,0,1-.441-.161c-.035-.041-.155-.042-.222-.019-.221.077-.431.181-.652.259a3.845,3.845,0,0,1-.579.163c-.235.044-.337-.052-.346-.285-.007-.2-.032-.213-.229-.162-.574.148-1.146.3-1.721.445a1.189,1.189,0,0,1-.339.04.244.244,0,0,1-.185-.1c-.024-.051.017-.139.044-.2.015-.037.064-.059.089-.094a1.564,1.564,0,0,0,.083-.149.514.514,0,0,0-.174-.061,1.872,1.872,0,0,0-.453.05c-.563.164-1.122.343-1.684.513a2.384,2.384,0,0,1-.458.094c.073-.359.392-.548.542-.881a3.014,3.014,0,0,0-.421,0c-.36.054-.717.12-1.074.19-.042.008-.082.069-.109.114a1.281,1.281,0,0,1-.152.274,1.787,1.787,0,0,1-.792.438,1.012,1.012,0,0,1-.245,0l-.02-.044a1.572,1.572,0,0,1,.181-.219c.577-.49,1.158-.975,1.737-1.461l.559-.469-.031-.047a1.08,1.08,0,0,0-.153.084q-.746.57-1.489,1.144a2.809,2.809,0,0,1-.252.18.129.129,0,0,1-.117.006.142.142,0,0,1-.043-.124.758.758,0,0,1,.182-.3q1.73-1.259,3.475-2.5a1.553,1.553,0,0,1,.382-.18c.049-.017.117.018.177.03-.024.05-.036.115-.075.146-.147.12-.314.218-.455.346q-1.089.988-2.167,1.989a1.665,1.665,0,0,0-.164.209Z" transform="translate(-286.011 -83.414)" fill="#d3d3d3"/>
        <path id="Trazado_9151" data-name="Trazado 9151" d="M-1940.287-410.849a.377.377,0,0,1-.479.179c-.125-.037-.249-.078-.371-.124a.287.287,0,0,0-.348.095c-.611.688-1.23,1.37-1.837,2.061-.554.63-1.093,1.273-1.646,1.9a2.779,2.779,0,0,1-.429.375.374.374,0,0,1-.471.017.352.352,0,0,1-.123-.424c.149-.443.294-.888.466-1.322q.411-1.039.855-2.065a2.155,2.155,0,0,1,.679-.9,2.012,2.012,0,0,1,1.289-.333,8.326,8.326,0,0,1,1.1.131.219.219,0,0,0,.23-.066q.75-.872,1.5-1.743c.028-.033.048-.08.083-.1a1.284,1.284,0,0,1,.192-.073c.015.078.07.18.039.229a4.972,4.972,0,0,1-.42.581c-.3.355-.613.694-.91,1.049-.193.231-.172.279.118.367.088.027.181.041.268.071A2.331,2.331,0,0,1-1940.287-410.849Zm-1.556-.091a.95.95,0,0,0-.205-.046c-.439.01-.882,0-1.317.049a.958.958,0,0,0-.814.574c-.313.693-.66,1.372-.951,2.073a9.776,9.776,0,0,0-.378,1.279.868.868,0,0,0,.037.306.947.947,0,0,0,.263-.136c.225-.229.444-.465.647-.713q1.293-1.579,2.574-3.167A2.59,2.59,0,0,0-1941.844-410.94Z" transform="translate(0 -127.562)" fill="#d3d3d3"/>
        <path id="Trazado_9152" data-name="Trazado 9152" d="M-1296.543-541.885a3.335,3.335,0,0,1,.339-.22c.848-.42,1.7-.83,2.548-1.252a4.224,4.224,0,0,0,1.192-.82,1.168,1.168,0,0,0,.23-.332c.089-.206-.032-.364-.256-.341a1.161,1.161,0,0,0-.376.1,18.366,18.366,0,0,0-4.122,2.491c-1.023.873-2.006,1.793-3.013,2.685a5.372,5.372,0,0,1-.665.5.818.818,0,0,1-.318.046,1.164,1.164,0,0,1,.145-.264,33.769,33.769,0,0,1,3.252-2.951,18.721,18.721,0,0,1,3.294-2.136c.536-.271,1.115-.457,1.675-.681a.649.649,0,0,1,.648.088c.182.126.214.193.122.395a2.018,2.018,0,0,1-.861.955c-.724.4-1.451.793-2.189,1.167-.45.228-.922.416-1.385.617a1.1,1.1,0,0,1-.22.047Z" transform="translate(-623.943 0)" fill="#d3d3d3"/>
        <path id="Trazado_9153" data-name="Trazado 9153" d="M-1438.325-435.5a.264.264,0,0,1,.171-.273.161.161,0,0,1,.228.116c.045.132.1.259.146.391.019.062.04.162.009.191a.253.253,0,0,1-.2.04A.468.468,0,0,1-1438.325-435.5Z" transform="translate(-491.094 -105.757)" fill="#d3d3d3"/>
        <path id="Trazado_9154" data-name="Trazado 9154" d="M-1728.323-342.1c0,.187-.153.4-.253.368a.27.27,0,0,1-.149-.187c-.023-.141.118-.313.234-.293C-1728.421-342.2-1728.36-342.128-1728.323-342.1Z" transform="translate(-210.186 -196.267)" fill="#d3d3d3"/>
      </g>
    </g>
  </g>
</svg>
