<svg xmlns="http://www.w3.org/2000/svg" width="42.39" height="59.214" viewBox="0 0 42.39 59.214">
  <g id="Grupo_8758" data-name="Grupo 8758" transform="translate(-431.162 -211.688)">
    <path id="Trazado_9007" data-name="Trazado 9007" d="M431.633,274.78h41.551v-9.457c0-7.841-6.936-14.258-15.414-14.258H447.047c-8.477,0-15.413,6.417-15.413,14.258Z" transform="translate(-0.051 -4.298)" fill="#47bbe5" fill-rule="evenodd"/>
    <path id="Trazado_9008" data-name="Trazado 9008" d="M432,274.31h40.712v-9.039a13.287,13.287,0,0,0-4.392-9.763,15.594,15.594,0,0,0-10.6-4.075H447a15.594,15.594,0,0,0-10.6,4.075A13.287,13.287,0,0,0,432,265.272v9.039Zm41.131.838H431.582a.419.419,0,0,1-.42-.42v-9.457a14.12,14.12,0,0,1,4.664-10.376A16.43,16.43,0,0,1,447,250.6h10.724a16.43,16.43,0,0,1,11.169,4.3,14.12,14.12,0,0,1,4.664,10.376v9.457A.419.419,0,0,1,473.133,275.149Z" transform="translate(0 -4.247)" fill="#334f87" fill-rule="evenodd"/>
    <path id="Trazado_9009" data-name="Trazado 9009" d="M440.557,263.51a.418.418,0,1,1,.789.275,13.3,13.3,0,0,0-.556,2.183,13.811,13.811,0,0,0-.187,2.281v7.441h25.386v-7.441a13.9,13.9,0,0,0-.187-2.281,13.215,13.215,0,0,0-.557-2.184.418.418,0,0,1,.79-.275,14.078,14.078,0,0,1,.592,2.321,14.712,14.712,0,0,1,.2,2.419v7.86a.42.42,0,0,1-.421.42H440.184a.419.419,0,0,1-.42-.42v-7.86a14.712,14.712,0,0,1,.2-2.419A14.048,14.048,0,0,1,440.557,263.51Z" transform="translate(-0.939 -5.626)" fill="#334f87" fill-rule="evenodd"/>
    <path id="Trazado_9010" data-name="Trazado 9010" d="M449.9,246.169h8.756v5.451a3.217,3.217,0,0,1-.143.95c-.685,3.088-3.281,4.516-4.24,5.281-1.043-.834-4.1-2.249-4.357-5.919-.01-.1-.016-.207-.016-.312Z" transform="translate(-2.046 -3.764)" fill="#e5e2d1" fill-rule="evenodd"/>
    <path id="Trazado_9011" data-name="Trazado 9011" d="M449.854,245.7h9.176v5.871a3.671,3.671,0,0,1-.041.542,3.723,3.723,0,0,1-.118.518,8.7,8.7,0,0,1-3.889,5.132c-.187.135-.352.253-.494.366l-.261.208-.26-.208c-.164-.13-.369-.27-.6-.429-1.376-.935-3.679-2.5-3.91-5.788-.005-.057-.009-.112-.012-.165,0-.075-.005-.133-.005-.175V245.7Zm8.337.839h-7.916v5.032l0,.136c0,.047.005.094.01.136l0,.012c.2,2.884,2.293,4.3,3.543,5.153.143.1.276.186.394.27l.269-.194a7.958,7.958,0,0,0,3.566-4.653l.008-.031a2.841,2.841,0,0,0,.092-.412,2.78,2.78,0,0,0,.031-.417Z" transform="translate(-1.994 -3.712)" fill="#334f87" fill-rule="evenodd"/>
    <rect id="Rectángulo_2269" data-name="Rectángulo 2269" width="20.714" height="28.333" rx="10.357" transform="translate(442.069 215.422)" fill="#e5e2d1"/>
    <path id="Trazado_9012" data-name="Trazado 9012" d="M453.711,215.408a10.807,10.807,0,0,1,10.777,10.777V233.8a10.777,10.777,0,0,1-21.553,0v-7.619a10.807,10.807,0,0,1,10.777-10.777Zm7.018,3.758a9.937,9.937,0,0,0-16.956,7.018V233.8a9.937,9.937,0,0,0,19.875,0v-7.619A9.907,9.907,0,0,0,460.729,219.167Z" transform="translate(-1.285 -0.406)" fill="#334f87" fill-rule="evenodd"/>
    <path id="Trazado_9013" data-name="Trazado 9013" d="M455.182,237.082a.42.42,0,1,1-.839,0c0-.7,0-1.066.2-1.336.238-.327.547-.342,1.152-.342a.44.44,0,0,0,.444-.285.7.7,0,0,0,.041-.233.739.739,0,0,0-.039-.237.311.311,0,0,0-.27-.245.419.419,0,0,1-.42-.419v-3.163a.42.42,0,0,1,.839,0v2.824a1.181,1.181,0,0,1,.644.731,1.566,1.566,0,0,1,.081.512,1.531,1.531,0,0,1-.094.521,1.236,1.236,0,0,1-1.227.832c-.32,0-.469-.01-.473-.005A3.316,3.316,0,0,0,455.182,237.082Z" transform="translate(-2.53 -2.043)" fill="#334f87" fill-rule="evenodd"/>
    <path id="Trazado_9014" data-name="Trazado 9014" d="M458.008,239.614a3.711,3.711,0,0,1-3.64,3.054h0a3.711,3.711,0,0,1-3.641-3.054Z" transform="translate(-2.136 -3.048)" fill="#fff" fill-rule="evenodd"/>
    <path id="Trazado_9015" data-name="Trazado 9015" d="M458.366,239.656a4.117,4.117,0,0,1-8.1-.021.419.419,0,0,1,.34-.486.41.41,0,0,1,.072-.006h7.281a.42.42,0,0,1,.42.42.408.408,0,0,1-.011.094Zm-1.948,1.775a3.305,3.305,0,0,0,1-1.449h-6.2a3.307,3.307,0,0,0,1,1.449,3.263,3.263,0,0,0,4.2,0Z" transform="translate(-2.084 -2.997)" fill="#334f87" fill-rule="evenodd"/>
    <path id="Trazado_9016" data-name="Trazado 9016" d="M443.093,229.857h-.006a.922.922,0,0,0-.912-.812h-.71a.921.921,0,0,0-.918.918v2.929h0a3.1,3.1,0,0,0,2.547,3.036v-6.073Z" transform="translate(-1.024 -1.895)" fill="#e5e2d1" fill-rule="evenodd"/>
    <path id="Trazado_9017" data-name="Trazado 9017" d="M442.622,229.879l0-.025a.5.5,0,0,0-.5-.441h-.71a.5.5,0,0,0-.5.5v2.929a2.652,2.652,0,0,0,.623,1.708,2.689,2.689,0,0,0,1.085.778v-5.448Zm.388-.966a1.354,1.354,0,0,1,.314.412l.137-.026v7.08l-.492-.087a3.517,3.517,0,0,1-2.894-3.449v-2.929a1.341,1.341,0,0,1,1.338-1.338h.71A1.332,1.332,0,0,1,443.01,228.914Z" transform="translate(-0.973 -1.843)" fill="#334f87" fill-rule="evenodd"/>
    <path id="Trazado_9018" data-name="Trazado 9018" d="M466.657,229.857h.006a.922.922,0,0,1,.913-.812h.709a.921.921,0,0,1,.919.918v2.929h0a3.1,3.1,0,0,1-2.548,3.036v-6.073Z" transform="translate(-3.874 -1.895)" fill="#e5e2d1" fill-rule="evenodd"/>
    <path id="Trazado_9019" data-name="Trazado 9019" d="M467.029,229.854l0,.026v5.448a2.686,2.686,0,0,0,1.086-.778,2.657,2.657,0,0,0,.623-1.708v-2.929a.5.5,0,0,0-.5-.5h-.709a.5.5,0,0,0-.5.441Zm-.706-.527a1.339,1.339,0,0,1,1.2-.752h.709a1.34,1.34,0,0,1,1.338,1.338v2.929a3.517,3.517,0,0,1-2.894,3.449l-.492.087V229.3Z" transform="translate(-3.823 -1.843)" fill="#334f87" fill-rule="evenodd"/>
    <path id="Trazado_9020" data-name="Trazado 9020" d="M443.431,220.433c1.712,0,1.628.759,1.628,2.223v4.361c0,1.7-.657,4.624-2.548,5.2V222.005C442.531,221.474,442.741,220.433,443.431,220.433Z" transform="translate(-1.239 -0.955)" fill="#153f67" fill-rule="evenodd"/>
    <path id="Trazado_9021" data-name="Trazado 9021" d="M443.38,219.961c2.053,0,2.051.836,2.047,2.448v.2h0v4.361a8.861,8.861,0,0,1-.8,3.645,3.508,3.508,0,0,1-2.042,1.951.419.419,0,0,1-.54-.4h0V221.954q0-.027,0-.053a3.107,3.107,0,0,1,.347-1.315,1.12,1.12,0,0,1,.988-.624Zm1.211,2.448c0-1.059,0-1.609-1.211-1.609-.105,0-.193.087-.264.208a2.2,2.2,0,0,0-.236.927c.069,3.157,0,6.392,0,9.56a3.243,3.243,0,0,0,.994-1.253,7.98,7.98,0,0,0,.714-3.278V222.6h0Z" transform="translate(-1.188 -0.903)" fill="#334f87" fill-rule="evenodd"/>
    <path id="Trazado_9022" data-name="Trazado 9022" d="M467.061,220.886c-.053-.78-.444-1.391-.913-1.391h-.773l-.014,0c-.766.1-.913,1.439-.909,2.681,0,1.294.068,2.591.068,3.9,0,1.7.657,4.624,2.548,5.2V221.068Z" transform="translate(-3.634 -0.852)" fill="#153f67" fill-rule="evenodd"/>
    <path id="Trazado_9023" data-name="Trazado 9023" d="M466.592,220.862a1.681,1.681,0,0,0-.234-.79c-.085-.129-.178-.208-.261-.208-.224,0-.523-.019-.738,0-.176.027-.3.266-.388.6a6.882,6.882,0,0,0-.152,1.661c0,.614.018,1.24.034,1.866.018.7.036,1.411.036,2.031a7.964,7.964,0,0,0,.715,3.278,3.24,3.24,0,0,0,.993,1.253c0-3.165-.076-6.411,0-9.562l0-.135Zm.463-1.249a2.52,2.52,0,0,1,.372,1.193l0,.161a.315.315,0,0,1,0,.05v10.207h0a.449.449,0,0,1-.018.122.418.418,0,0,1-.521.278,3.5,3.5,0,0,1-2.043-1.951,8.861,8.861,0,0,1-.8-3.645c0-.732-.016-1.373-.032-2.011s-.032-1.251-.034-1.887a7.636,7.636,0,0,1,.178-1.874c.174-.661.5-1.139,1.087-1.22a1.214,1.214,0,0,1,.14-.012h.709A1.16,1.16,0,0,1,467.056,219.613Z" transform="translate(-3.582 -0.801)" fill="#334f87" fill-rule="evenodd"/>
    <path id="Trazado_9024" data-name="Trazado 9024" d="M454.375,213.892c-4.353,0-8.979.326-9.276,5.661-.156,2.79,3.284,3.242,5.709,3.242h7.134a11,11,0,0,0,6.076-1.773,7.753,7.753,0,0,0,3.567-5.358,6.636,6.636,0,0,0-.407-3.288,11.086,11.086,0,0,1-5.668,1.516Z" transform="translate(-1.521 -0.075)" fill="#153f67" fill-rule="evenodd"/>
    <path id="Trazado_9025" data-name="Trazado 9025" d="M454.324,214.237a15.865,15.865,0,0,0-5.993.8,4.661,4.661,0,0,0-2.866,4.469,2.222,2.222,0,0,0,1.625,2.257,10.37,10.37,0,0,0,3.667.543h7.134a11.1,11.1,0,0,0,3.1-.436,10.033,10.033,0,0,0,2.745-1.267,8.288,8.288,0,0,0,2.318-2.279,6.558,6.558,0,0,0,1.065-2.784c.017-.126.03-.259.039-.4.008-.125.012-.259.012-.4a6.135,6.135,0,0,0-.273-1.823,11.134,11.134,0,0,1-2.354.924,11.963,11.963,0,0,1-3.084.4Zm-6.324.025a16.538,16.538,0,0,1,6.324-.864h7.134a11.1,11.1,0,0,0,2.868-.372,10.2,10.2,0,0,0,2.586-1.083l.424-.254.18.461a7.09,7.09,0,0,1,.368,1.275,7.01,7.01,0,0,1,.125,1.31c0,.144-.005.3-.015.455s-.025.3-.045.454a7.383,7.383,0,0,1-1.2,3.138A9.118,9.118,0,0,1,464.2,221.3a10.875,10.875,0,0,1-2.974,1.371,11.9,11.9,0,0,1-3.333.472h-7.134a11.155,11.155,0,0,1-3.979-.606,2.989,2.989,0,0,1-2.149-3.079A5.434,5.434,0,0,1,448,214.262Z" transform="translate(-1.469 0)" fill="#334f87" fill-rule="evenodd"/>
    <path id="Trazado_9026" data-name="Trazado 9026" d="M449.409,233.145a1.244,1.244,0,1,0-1.244-1.244A1.246,1.246,0,0,0,449.409,233.145Z" transform="translate(-1.856 -2.071)" fill="#d3d3d3" fill-rule="evenodd"/>
    <path id="Trazado_9027" data-name="Trazado 9027" d="M449.357,230.188a1.657,1.657,0,0,1,1.174.486l0,0a1.662,1.662,0,1,1-2.35,2.35l0,0a1.661,1.661,0,0,1,1.176-2.836Zm.583,1.079a.826.826,0,0,0-1.168,1.167l0,0a.826.826,0,0,0,1.166-1.169Z" transform="translate(-1.804 -2.019)" fill="#334f87" fill-rule="evenodd"/>
    <path id="Trazado_9028" data-name="Trazado 9028" d="M460.349,233.145a1.244,1.244,0,1,0-1.244-1.244A1.246,1.246,0,0,0,460.349,233.145Z" transform="translate(-3.05 -2.071)" fill="#f2f2f2" fill-rule="evenodd"/>
    <path id="Trazado_9029" data-name="Trazado 9029" d="M460.3,231.026a.823.823,0,0,0-.583.241h0a.828.828,0,1,0,.583-.241Zm-1.176-.352a1.663,1.663,0,0,1,2.35,0l0,0a1.664,1.664,0,1,1-2.353,0Z" transform="translate(-2.999 -2.019)" fill="#334f87" fill-rule="evenodd"/>
    <path id="Trazado_9030" data-name="Trazado 9030" d="M453.9,258.385c-1.043-.834-4.1-2.249-4.357-5.919-.01-.1-.016-.207-.016-.312v-1.09h-.864a16.6,16.6,0,0,0-2.262.155c.216,7.38,5.693,9.558,7.608,10.8,1.914-1.245,7.391-3.522,7.607-10.808a16.559,16.559,0,0,0-2.229-.151h-1.1v1.09a3.217,3.217,0,0,1-.143.95C457.45,256.192,454.854,257.62,453.9,258.385Z" transform="translate(-1.663 -4.298)" fill="#2486c5" fill-rule="evenodd"/>
    <path id="Trazado_9031" data-name="Trazado 9031" d="M453.582,258.661c-.164-.13-.369-.27-.6-.429-1.376-.935-3.679-2.5-3.91-5.788-.005-.057-.009-.112-.012-.165,0-.075-.005-.133-.005-.175v-.669h-.445q-.569,0-1.108.037-.365.025-.719.065c.334,5.974,4.34,8.3,6.55,9.576.226.131.434.251.624.366.174-.107.37-.222.582-.346,2.2-1.291,6.251-3.669,6.591-9.6q-.346-.039-.7-.062-.529-.036-1.091-.036h-.684v.669a3.671,3.671,0,0,1-.041.542,3.723,3.723,0,0,1-.118.518,8.7,8.7,0,0,1-3.889,5.132c-.187.135-.352.253-.494.366l-.261.208-.26-.208Zm-.136-1.121c.143.1.276.186.394.27l.269-.194a7.958,7.958,0,0,0,3.566-4.653l.008-.031a2.841,2.841,0,0,0,.092-.412,2.78,2.78,0,0,0,.031-.417V250.6h1.523c.378,0,.761.012,1.147.039s.759.064,1.138.116l.373.05-.012.376c-.2,6.674-4.633,9.276-7.021,10.678-.3.174-.559.328-.777.469l-.227.148-.228-.148c-.216-.142-.5-.3-.814-.487-2.4-1.389-6.787-3.932-6.983-10.656l-.012-.375.373-.052q.577-.079,1.155-.118t1.163-.04h1.285V252.1l0,.136c0,.047.005.094.01.136l0,.012C450.105,255.271,452.2,256.691,453.446,257.54Z" transform="translate(-1.61 -4.247)" fill="#334f87" fill-rule="evenodd"/>
    <path id="Trazado_9032" data-name="Trazado 9032" d="M443.186,252.064c.675,7.656,6.166,11.178,9.25,13.155.422.272.8.514,1.125.74.344-.238.748-.491,1.2-.774,3.073-1.922,8.437-5.277,9.268-13.11l.832.088C463.988,260.4,458.4,263.9,455.2,265.9c-.559.349-1.042.652-1.4.914l-.249.184-.249-.184c-.339-.252-.8-.546-1.328-.886-3.208-2.058-8.922-5.723-9.633-13.788Z" transform="translate(-1.221 -4.407)" fill="#334f87" fill-rule="evenodd"/>
    <path id="Trazado_9033" data-name="Trazado 9033" d="M446.924,229.288a.418.418,0,0,1-.59-.593,4.052,4.052,0,0,1,1.313-.878l.022-.009a4.039,4.039,0,0,1,3.073.009h0a4.046,4.046,0,0,1,1.314.878.419.419,0,1,1-.591.593,3.223,3.223,0,0,0-3.48-.707l-.02.009a3.218,3.218,0,0,0-1.044.7Zm9.748,0a.42.42,0,1,1-.593-.593,4.06,4.06,0,0,1,1.315-.878l.022-.009a4.039,4.039,0,0,1,3.073.009h0a4.054,4.054,0,0,1,1.316.878.42.42,0,1,1-.594.593,3.215,3.215,0,0,0-1.042-.7,3.179,3.179,0,0,0-1.228-.242,3.227,3.227,0,0,0-1.208.233l-.02.009A3.224,3.224,0,0,0,456.671,229.288Z" transform="translate(-1.643 -1.727)" fill="#334f87" fill-rule="evenodd"/>
    <path id="Trazado_9034" data-name="Trazado 9034" d="M445.205,219.548a.418.418,0,1,1,.626-.553,4.979,4.979,0,0,0,2.793,1.332,22.941,22.941,0,0,0,4.526.327.418.418,0,0,1,0,.837,23.725,23.725,0,0,1-4.693-.345A5.749,5.749,0,0,1,445.205,219.548Z" transform="translate(-1.521 -0.782)" fill="#334f87" fill-rule="evenodd"/>
    <path id="Trazado_9035" data-name="Trazado 9035" d="M444.024,215.329a.418.418,0,1,1,.836,0l.02,4.731a.418.418,0,0,1-.684.323h0l-2.947-2.434a.419.419,0,1,1,.535-.646l2.258,1.865Z" transform="translate(-1.084 -0.352)" fill="#334f87" fill-rule="evenodd"/>
  </g>
</svg>
