<svg xmlns="http://www.w3.org/2000/svg" width="43.599" height="46.412" viewBox="0 0 43.599 46.412">
  <g id="Grupo_8584" data-name="Grupo 8584" transform="translate(0.567 0.497)">
    <path id="Trazado_1016" data-name="Trazado 1016" d="M39.846,215.464a3.051,3.051,0,0,0-3,3.1,3.118,3.118,0,0,0,1.524,2.7v19.326a2.948,2.948,0,0,0,2.9,3H71.8a2.948,2.948,0,0,0,2.9-3V215.464Z" transform="translate(-34.322 -199.744)" fill="#002f62" stroke="#334f87" stroke-linecap="round" stroke-linejoin="round" stroke-width="0.992"/>
    <g id="Grupo_8579" data-name="Grupo 8579">
      <g id="Grupo_8566" data-name="Grupo 8566" transform="translate(0 1.673)">
        <g id="Grupo_8562" data-name="Grupo 8562">
          <path id="Trazado_1017" data-name="Trazado 1017" d="M44.749,196.372a1.165,1.165,0,0,1,1.588.541l9.577,19.658a1.245,1.245,0,0,1-.525,1.643l-10.828,5.647a1.164,1.164,0,0,1-1.588-.542L33.4,203.663a1.244,1.244,0,0,1,.523-1.643Z" transform="translate(-33.27 -196.241)" fill="#0ebcf1" stroke="#334f87" stroke-linecap="round" stroke-linejoin="round" stroke-width="0.992"/>
        </g>
        <g id="Grupo_8563" data-name="Grupo 8563" transform="translate(2.096 3.652)">
          <path id="Trazado_8999" data-name="Trazado 8999" d="M0,0,2.969-.041l-.33,24.293-2.969.041Z" transform="translate(0 1.372) rotate(-26.739)" fill="#e3e5e8" stroke="#334f87" stroke-linecap="round" stroke-width="0.992"/>
        </g>
        <g id="Grupo_8564" data-name="Grupo 8564" transform="translate(15.921 16.12)">
          <path id="Trazado_9000" data-name="Trazado 9000" d="M0,0,2.256-.031,2.183,5.32l-2.256.031Z" transform="matrix(0.893, -0.45, 0.45, 0.893, 0, 1.043)" fill="#e3e5e8" stroke="#334f87" stroke-linecap="round" stroke-width="0.992"/>
        </g>
        <g id="Grupo_8565" data-name="Grupo 8565" transform="translate(12.462 9.017)">
          <path id="Trazado_9001" data-name="Trazado 9001" d="M0,0,2.256-.031l-.1,7L-.1,7Z" transform="matrix(0.893, -0.45, 0.45, 0.893, 0, 1.043)" fill="#e3e5e8" stroke="#334f87" stroke-linecap="round" stroke-width="0.992"/>
        </g>
        <path id="Trazado_1018" data-name="Trazado 1018" d="M47.619,203.271a1.647,1.647,0,0,1,2.248.767,1.761,1.761,0,0,1-.741,2.327,1.648,1.648,0,0,1-2.248-.767A1.761,1.761,0,0,1,47.619,203.271Z" transform="translate(-37.215 -198.083)" fill="#314cff" stroke="#334f87" stroke-linecap="round" stroke-linejoin="round" stroke-width="0.992"/>
        <path id="Trazado_1019" data-name="Trazado 1019" d="M46.089,200.235a1.647,1.647,0,0,1,2.247.767,1.759,1.759,0,0,1-.741,2.326,1.647,1.647,0,0,1-2.247-.767A1.761,1.761,0,0,1,46.089,200.235Z" transform="translate(-36.766 -197.266)" fill="#8d0cc4" stroke="#334f87" stroke-linecap="round" stroke-linejoin="round" stroke-width="0.992"/>
      </g>
      <g id="Grupo_8570" data-name="Grupo 8570" transform="translate(13.614)">
        <g id="Grupo_8569" data-name="Grupo 8569">
          <path id="Trazado_1020" data-name="Trazado 1020" d="M68.209,194.937a1.358,1.358,0,0,1,1.221,1.474l-1.817,24.637a1.341,1.341,0,0,1-1.423,1.263l-12.417-.981a1.359,1.359,0,0,1-1.223-1.472l1.819-24.637a1.343,1.343,0,0,1,1.423-1.265Z" transform="translate(-52.547 -193.952)" fill="#0ebcf1" stroke="#334f87" stroke-linecap="round" stroke-linejoin="round" stroke-width="0.992"/>
          <path id="Trazado_1021" data-name="Trazado 1021" d="M56.672,198.885l-1.4,19.014a3.953,3.953,0,0,1,2.018,2.613l7.244.571a3.9,3.9,0,0,1,2.379-2.265l1.4-19.014a3.963,3.963,0,0,1-2.02-2.612l-7.243-.572A3.9,3.9,0,0,1,56.672,198.885Z" transform="translate(-53.346 -194.67)" fill="#3e67d6" stroke="#334f87" stroke-linecap="round" stroke-linejoin="round" stroke-width="0.992"/>
          <path id="Trazado_1022" data-name="Trazado 1022" d="M62.875,206.593a4.9,4.9,0,0,1,4.411,5.318,4.841,4.841,0,0,1-5.139,4.563,4.9,4.9,0,0,1-4.411-5.317A4.844,4.844,0,0,1,62.875,206.593Z" transform="translate(-54.067 -197.351)" fill="#0ebcf1" stroke="#334f87" stroke-linecap="round" stroke-linejoin="round" stroke-width="0.992"/>
          <g id="Grupo_8567" data-name="Grupo 8567" transform="translate(6.2 4.166)">
            <path id="Trazado_1023" data-name="Trazado 1023" d="M64.819,199.657a1.669,1.669,0,0,1,1.5,1.811,1.651,1.651,0,0,1-1.749,1.554,1.67,1.67,0,0,1-1.5-1.812A1.648,1.648,0,0,1,64.819,199.657Z" transform="translate(-61.837 -199.652)" fill="#f1f4dc" stroke="#334f87" stroke-linecap="round" stroke-linejoin="round" stroke-width="0.992"/>
            <path id="Trazado_1024" data-name="Trazado 1024" d="M63.08,222.454a1.668,1.668,0,0,1,1.5,1.809,1.65,1.65,0,0,1-1.75,1.554,1.668,1.668,0,0,1-1.5-1.811A1.648,1.648,0,0,1,63.08,222.454Z" transform="translate(-61.326 -205.79)" fill="#f1f4dc" stroke="#334f87" stroke-linecap="round" stroke-linejoin="round" stroke-width="0.992"/>
          </g>
          <g id="Grupo_8568" data-name="Grupo 8568" transform="translate(4.999 12.618)">
            <path id="Trazado_1025" data-name="Trazado 1025" d="M63.552,212.8a1.431,1.431,0,0,1-1.518,1.349,1.45,1.45,0,0,1-1.3-1.572,1.431,1.431,0,0,1,1.518-1.35" transform="translate(-59.948 -211.219)" fill="none" stroke="#334f87" stroke-linecap="round" stroke-linejoin="round" stroke-width="0.992"/>
            <path id="Trazado_1026" data-name="Trazado 1026" d="M64.728,212.878a1.433,1.433,0,0,1,1.52-1.35,1.449,1.449,0,0,1,1.3,1.573,1.432,1.432,0,0,1-1.518,1.349" transform="translate(-61.124 -211.301)" fill="none" stroke="#334f87" stroke-linecap="round" stroke-linejoin="round" stroke-width="0.992"/>
            <line id="Línea_8" data-name="Línea 8" x2="7.21" y2="0.569" transform="translate(0 1.292)" fill="none" stroke="#334f87" stroke-linecap="round" stroke-linejoin="round" stroke-width="0.992"/>
          </g>
        </g>
      </g>
      <g id="Grupo_8578" data-name="Grupo 8578" transform="translate(21.042 2.574)">
        <g id="Grupo_8571" data-name="Grupo 8571">
          <path id="Trazado_1027" data-name="Trazado 1027" d="M63.815,220.321a1.238,1.238,0,0,1-.668-1.586l7.789-20.485a1.17,1.17,0,0,1,1.534-.69l11.284,4.594a1.237,1.237,0,0,1,.667,1.586l-7.789,20.484a1.17,1.17,0,0,1-1.533.691Z" transform="translate(-63.065 -197.474)" fill="#4388c5" stroke="#334f87" stroke-linecap="round" stroke-linejoin="round" stroke-width="0.992"/>
        </g>
        <g id="Grupo_8572" data-name="Grupo 8572" transform="translate(2.042 0.608)">
          <path id="Trazado_9002" data-name="Trazado 9002" d="M0,0,24.35-.279,24.323,1.97l-24.35.279Z" transform="translate(0 22.764) rotate(-68.54)" fill="#e3e5e8" stroke="#334f87" stroke-linecap="round" stroke-width="0.992"/>
        </g>
        <g id="Grupo_8573" data-name="Grupo 8573" transform="translate(9.159 19.479)">
          <path id="Trazado_9003" data-name="Trazado 9003" d="M0,0,5.364-.062l-.026,2.25L-.026,2.25Z" transform="translate(0 5.014) rotate(-68.522)" fill="#e3e5e8" stroke="#334f87" stroke-linecap="round" stroke-width="0.992"/>
        </g>
        <g id="Grupo_8577" data-name="Grupo 8577" transform="translate(11.478 3.354)">
          <g id="Grupo_8574" data-name="Grupo 8574" transform="translate(0)">
            <path id="Trazado_9004" data-name="Trazado 9004" d="M0,0,4.473-.051,4.433,3.41l-4.473.051Z" transform="matrix(0.366, -0.931, 0.931, 0.366, 0, 4.181)" fill="#ffef53" stroke="#334f87" stroke-linecap="round" stroke-width="0.992"/>
          </g>
          <g id="Grupo_8575" data-name="Grupo 8575" transform="translate(0.962 0.392)">
            <path id="Trazado_9005" data-name="Trazado 9005" d="M0,0,4.473-.051,4.456,1.334l-4.473.051Z" transform="translate(0 4.181) rotate(-68.516)" fill="#ffef53" stroke="#334f87" stroke-linecap="round" stroke-width="0.992"/>
          </g>
          <g id="Grupo_8576" data-name="Grupo 8576" transform="translate(0.522 1.371)">
            <path id="Trazado_9006" data-name="Trazado 9006" d="M0,0,1.541-.018,1.5,3.443l-1.541.018Z" transform="translate(0 1.44) rotate(-68.536)" fill="#ffef53" stroke="#334f87" stroke-linecap="round" stroke-width="0.992"/>
          </g>
        </g>
      </g>
    </g>
    <path id="Trazado_1028" data-name="Trazado 1028" d="M36.849,219.707v23.6a2.948,2.948,0,0,0,2.9,3H70.273a2.948,2.948,0,0,0,2.9-3v-20.5H39.846A3.05,3.05,0,0,1,36.849,219.707Z" transform="translate(-34.322 -200.886)" fill="#47bbe5" stroke="#334f87" stroke-linecap="round" stroke-linejoin="round" stroke-width="0.992"/>
    <path id="Trazado_1029" data-name="Trazado 1029" d="M70.018,233.382v5.554a1.171,1.171,0,0,0,1.151,1.191h13.2v-7.935h-13.2A1.171,1.171,0,0,0,70.018,233.382Z" transform="translate(-44.065 -204.247)" fill="#0ebcf1" stroke="#334f87" stroke-linecap="round" stroke-linejoin="round" stroke-width="0.992"/>
    <ellipse id="Elipse_9" data-name="Elipse 9" cx="1.749" cy="1.81" rx="1.749" ry="1.81" transform="translate(27.472 30.102)" fill="#e5e2d1" stroke="#334f87" stroke-linecap="round" stroke-linejoin="round" stroke-width="0.992"/>
    <g id="Grupo_8581" data-name="Grupo 8581" transform="translate(5.809 24.111)">
      <g id="Grupo_8580" data-name="Grupo 8580">
        <line id="Línea_9" data-name="Línea 9" x2="0.924" stroke-width="0.992" stroke="#334f87" stroke-linecap="round" stroke-linejoin="round" fill="none"/>
        <line id="Línea_10" data-name="Línea 10" x2="26.114" transform="translate(2.858)" stroke-dasharray="2.739 2.739" stroke="#334f87" stroke-linecap="round" stroke-linejoin="round" stroke-width="0.992" fill="none"/>
        <line id="Línea_11" data-name="Línea 11" x2="0.925" transform="translate(29.939)" fill="none" stroke="#334f87" stroke-linecap="round" stroke-linejoin="round" stroke-width="0.992"/>
      </g>
    </g>
    <g id="Grupo_8583" data-name="Grupo 8583" transform="translate(5.809 42.622)">
      <g id="Grupo_8582" data-name="Grupo 8582">
        <line id="Línea_12" data-name="Línea 12" x2="0.924" stroke-width="0.992" stroke="#334f87" stroke-linecap="round" stroke-linejoin="round" fill="none"/>
        <line id="Línea_13" data-name="Línea 13" x2="26.114" transform="translate(2.858)" stroke-dasharray="2.739 2.739" stroke="#334f87" stroke-linecap="round" stroke-linejoin="round" stroke-width="0.992" fill="none"/>
        <line id="Línea_14" data-name="Línea 14" x2="0.925" transform="translate(29.939)" fill="none" stroke="#334f87" stroke-linecap="round" stroke-linejoin="round" stroke-width="0.992"/>
      </g>
    </g>
  </g>
</svg>
