<svg xmlns="http://www.w3.org/2000/svg" width="292.775" height="168.913" viewBox="0 0 292.775 168.913">
  <g id="Grupo_8814" data-name="Grupo 8814" transform="translate(-33.181 -149.768)">
    <g id="Grupo_8812" data-name="Grupo 8812" transform="translate(-261.941 106.378) rotate(-30)">
      <path id="Trazado_9116" data-name="Trazado 9116" d="M228.62,254.293s.053,5.436-4.6,5.9-6.812-6.951-3.873-10.918a56.952,56.952,0,0,1,5.5-5.581l-2.13-2.655s-6.123,4.187-7.531,7.252c-1.97,4.288-1.357,9.9.57,11.986a8.923,8.923,0,0,0,7.1,3.19c2.831-.124,7.753-2.01,8.561-6.383Z" fill="#2486c5"/>
      <path id="Trazado_9117" data-name="Trazado 9117" d="M273.963,227.177h4.593s-3,7.5,0,11a46.145,46.145,0,0,0,7.243,6.5l-5.918,3.256s-4.01-7.756-5.918-12.756S273.963,227.177,273.963,227.177Z" transform="translate(-23.151 -9.902)" fill="#334f87"/>
      <path id="Trazado_9118" data-name="Trazado 9118" d="M265.18,260.985l6.963,3.048s-5.616,2.93-8.312,6.347-.447,8.265-.447,8.265l-7.171-4.132S258.123,264.055,265.18,260.985Z" fill="#2486c5"/>
      <path id="Trazado_9119" data-name="Trazado 9119" d="M208.788,294.4l7.445,1.532s-4.883,4.034-6.809,7.939,1.283,8.176,1.283,8.176l-7.874-2.548S202.525,298.868,208.788,294.4Z" fill="#4a69ff"/>
      <path id="Trazado_9120" data-name="Trazado 9120" d="M285.736,302.428s-2.292-10.24,2.869-14.04a14.427,14.427,0,0,1,11.148-2.3l-2.1,3.22a9.5,9.5,0,0,0-6.931,2.85c-2.668,3.036-1.343,9.864-1.343,9.864Z" fill="#4a69ff"/>
      <path id="Trazado_9121" data-name="Trazado 9121" d="M352.6,248.963h4.593s-3,7.5,0,11a46.145,46.145,0,0,0,7.243,6.5l-5.918,3.257s-4.011-7.757-5.918-12.757S352.6,248.963,352.6,248.963Z" transform="translate(-23.187 -1.84)" fill="#6fc5e2"/>
      <path id="Trazado_9122" data-name="Trazado 9122" d="M196.2,263.474a2.924,2.924,0,1,1-2.924-2.924A2.924,2.924,0,0,1,196.2,263.474Z" fill="#47bbe5"/>
      <path id="Trazado_9123" data-name="Trazado 9123" d="M309.5,232.2a2.923,2.923,0,1,1-2.924-2.924A2.924,2.924,0,0,1,309.5,232.2Z" transform="translate(-8.598 8.892)" fill="#314cff"/>
      <path id="Trazado_9124" data-name="Trazado 9124" d="M302.22,265.826a2.926,2.926,0,1,1-2.3-2.3A2.928,2.928,0,0,1,302.22,265.826Z" fill="#0ebcf1"/>
      <g id="Grupo_8811" data-name="Grupo 8811">
        <g id="Grupo_8804" data-name="Grupo 8804">
          <path id="Trazado_9125" data-name="Trazado 9125" d="M217.657,326.2a91.509,91.509,0,0,0,5.538,7.3c3,3.463,7.418,7.586,7.418,7.586S224.246,331.584,217.657,326.2Z" fill="#0ebcf1"/>
        </g>
        <g id="Grupo_8805" data-name="Grupo 8805">
          <path id="Trazado_9126" data-name="Trazado 9126" d="M212.522,356.115s5,3.478,9.463,5.974c4.884,2.733,11.608,5.757,11.608,5.757S222.174,359.844,212.522,356.115Z" fill="#0ebcf1"/>
        </g>
        <g id="Grupo_8806" data-name="Grupo 8806">
          <path id="Trazado_9127" data-name="Trazado 9127" d="M238.038,304.133l-.026,1.492c-.014.942.014,2.28.145,3.846a43.635,43.635,0,0,0,.72,5.211,41.726,41.726,0,0,0,1.492,5.514c.323.973.725,1.96,1.143,2.955.441.984.888,1.982,1.4,2.933a47.386,47.386,0,0,0,3.165,5.231c.552.744,1.031,1.458,1.525,2.051s.894,1.141,1.274,1.559l1.189,1.343-.508-.736c-.332-.475-.82-1.161-1.381-2.056-.288-.442-.607-.927-.92-1.472s-.684-1.107-1.016-1.741c-.7-1.248-1.443-2.654-2.152-4.2a64.775,64.775,0,0,1-3.836-10.492c-.284-.941-.479-1.908-.732-2.862-.189-.966-.438-1.923-.6-2.888-.191-.96-.349-1.919-.491-2.869C238.266,306,238.183,305.057,238.038,304.133Z" fill="#0ebcf1"/>
        </g>
        <g id="Grupo_8807" data-name="Grupo 8807">
          <path id="Trazado_9128" data-name="Trazado 9128" d="M270.258,327.139a60,60,0,0,0,3.115-6.716,78.939,78.939,0,0,0,2.36-8.236S271.234,320.291,270.258,327.139Z" fill="#0ebcf1"/>
        </g>
        <g id="Grupo_8808" data-name="Grupo 8808">
          <path id="Trazado_9129" data-name="Trazado 9129" d="M254.755,322.465a14.064,14.064,0,0,0,.468-1.542,12.665,12.665,0,0,0,.392-3.259,14.427,14.427,0,0,0-.645-3.689,16.306,16.306,0,0,0-.656-1.8l.018,3.532A42.228,42.228,0,0,0,254.755,322.465Z" fill="#0ebcf1"/>
        </g>
        <g id="Grupo_8810" data-name="Grupo 8810">
          <path id="Trazado_9131" data-name="Trazado 9131" d="M302.654,341.917l2.676-1.9c1.567-1.116,3.6-2.542,5.427-3.884l6.085-4.585,3.144-2.32a54.879,54.879,0,0,0-6.472,3.514A46.315,46.315,0,0,0,302.654,341.917Z" fill="#d19c78"/>
        </g>
      </g>
    </g>
    <g id="Grupo_8813" data-name="Grupo 8813" transform="translate(402.993 -131.626) rotate(60)">
      <path id="Trazado_9116-2" data-name="Trazado 9116" d="M228.62,254.293s.053,5.436-4.6,5.9-6.812-6.951-3.873-10.918a56.952,56.952,0,0,1,5.5-5.581l-2.13-2.655s-6.123,4.187-7.531,7.252c-1.97,4.288-1.357,9.9.57,11.986a8.923,8.923,0,0,0,7.1,3.19c2.831-.124,7.753-2.01,8.561-6.383Z" fill="#2486c5"/>
      <path id="Trazado_9118-2" data-name="Trazado 9118" d="M265.18,260.985l6.963,3.048s-5.616,2.93-8.312,6.347-.447,8.265-.447,8.265l-7.171-4.132S258.123,264.055,265.18,260.985Z" fill="#2486c5"/>
      <path id="Trazado_9119-2" data-name="Trazado 9119" d="M208.788,294.4l7.445,1.532s-4.883,4.034-6.809,7.939,1.283,8.176,1.283,8.176l-7.874-2.548S202.525,298.868,208.788,294.4Z" fill="#4a69ff"/>
      <path id="Trazado_9120-2" data-name="Trazado 9120" d="M285.736,302.428s-2.292-10.24,2.869-14.04a14.427,14.427,0,0,1,11.148-2.3l-2.1,3.22a9.5,9.5,0,0,0-6.931,2.85c-2.668,3.036-1.343,9.864-1.343,9.864Z" fill="#4a69ff"/>
      <path id="Trazado_9121-2" data-name="Trazado 9121" d="M352.6,248.963h4.593s-3,7.5,0,11a46.145,46.145,0,0,0,7.243,6.5l-5.918,3.257s-4.011-7.757-5.918-12.757S352.6,248.963,352.6,248.963Z" transform="translate(-203.806 59.002)" fill="#314cff"/>
      <path id="Trazado_9122-2" data-name="Trazado 9122" d="M196.2,263.474a2.924,2.924,0,1,1-2.924-2.924A2.924,2.924,0,0,1,196.2,263.474Z" fill="#47bbe5"/>
      <path id="Trazado_9123-2" data-name="Trazado 9123" d="M309.5,232.2a2.923,2.923,0,1,1-2.924-2.924A2.924,2.924,0,0,1,309.5,232.2Z" transform="translate(-128.988 81.413)" fill="#314cff"/>
      <path id="Trazado_9124-2" data-name="Trazado 9124" d="M302.22,265.826a2.926,2.926,0,1,1-2.3-2.3A2.928,2.928,0,0,1,302.22,265.826Z" fill="#0ebcf1"/>
      <g id="Grupo_8811-2" data-name="Grupo 8811">
        <g id="Grupo_8804-2" data-name="Grupo 8804">
          <path id="Trazado_9125-2" data-name="Trazado 9125" d="M217.657,326.2a91.509,91.509,0,0,0,5.538,7.3c3,3.463,7.418,7.586,7.418,7.586S224.246,331.584,217.657,326.2Z" fill="#0ebcf1"/>
        </g>
        <g id="Grupo_8805-2" data-name="Grupo 8805" transform="translate(592.358 25.554) rotate(77)">
          <path id="Trazado_9126-2" data-name="Trazado 9126" d="M212.522,356.115s5,3.478,9.463,5.974c4.884,2.733,11.608,5.757,11.608,5.757S222.174,359.844,212.522,356.115Z" fill="#0ebcf1"/>
        </g>
        <g id="Grupo_8806-2" data-name="Grupo 8806">
          <path id="Trazado_9127-2" data-name="Trazado 9127" d="M238.038,304.133l-.026,1.492c-.014.942.014,2.28.145,3.846a43.635,43.635,0,0,0,.72,5.211,41.726,41.726,0,0,0,1.492,5.514c.323.973.725,1.96,1.143,2.955.441.984.888,1.982,1.4,2.933a47.386,47.386,0,0,0,3.165,5.231c.552.744,1.031,1.458,1.525,2.051s.894,1.141,1.274,1.559l1.189,1.343-.508-.736c-.332-.475-.82-1.161-1.381-2.056-.288-.442-.607-.927-.92-1.472s-.684-1.107-1.016-1.741c-.7-1.248-1.443-2.654-2.152-4.2a64.775,64.775,0,0,1-3.836-10.492c-.284-.941-.479-1.908-.732-2.862-.189-.966-.438-1.923-.6-2.888-.191-.96-.349-1.919-.491-2.869C238.266,306,238.183,305.057,238.038,304.133Z" fill="#0ebcf1"/>
        </g>
        <g id="Grupo_8807-2" data-name="Grupo 8807">
          <path id="Trazado_9128-2" data-name="Trazado 9128" d="M270.258,327.139a60,60,0,0,0,3.115-6.716,78.939,78.939,0,0,0,2.36-8.236S271.234,320.291,270.258,327.139Z" fill="#0ebcf1"/>
        </g>
        <g id="Grupo_8808-2" data-name="Grupo 8808">
          <path id="Trazado_9129-2" data-name="Trazado 9129" d="M254.755,322.465a14.064,14.064,0,0,0,.468-1.542,12.665,12.665,0,0,0,.392-3.259,14.427,14.427,0,0,0-.645-3.689,16.306,16.306,0,0,0-.656-1.8l.018,3.532A42.228,42.228,0,0,0,254.755,322.465Z" fill="#0ebcf1"/>
        </g>
        <g id="Grupo_8810-2" data-name="Grupo 8810" transform="matrix(0.951, -0.309, 0.309, 0.951, -88.46, 112.627)">
          <path id="Trazado_9131-2" data-name="Trazado 9131" d="M302.654,341.917l2.676-1.9c1.567-1.116,3.6-2.542,5.427-3.884l6.085-4.585,3.144-2.32a54.879,54.879,0,0,0-6.472,3.514A46.315,46.315,0,0,0,302.654,341.917Z" fill="#0ebcf1"/>
        </g>
      </g>
    </g>
    <g id="Grupo_8803" data-name="Grupo 8803" transform="translate(5.597 6.68)">
      <g id="Avatar_5" data-name="Avatar 5" transform="translate(125 177.092)">
        <path id="Trazado_9079" data-name="Trazado 9079" d="M432.8,166.429h97.823V144.163c0-18.461-16.329-33.566-36.288-33.566h-2.6v-10.27H471.125V110.6H469.09c-19.959,0-36.288,15.1-36.288,33.566Z" transform="translate(-431.815 -33.72)" fill="#2486c5" fill-rule="evenodd"/>
        <path id="Trazado_9080" data-name="Trazado 9080" d="M433.764,165.415h95.848V144.138a31.283,31.283,0,0,0-10.339-22.985,36.715,36.715,0,0,0-24.961-9.594h-2.6a.987.987,0,0,1-.987-.988v-9.282H472.088v9.282a.989.989,0,0,1-.988.988h-2.035a36.713,36.713,0,0,0-24.961,9.594,31.28,31.28,0,0,0-10.34,22.985v21.278ZM530.6,167.39H432.776a.987.987,0,0,1-.987-.987V144.138a33.241,33.241,0,0,1,10.979-24.427,38.687,38.687,0,0,1,26.3-10.127h1.048V100.3a.987.987,0,0,1,.988-.987h20.614a.987.987,0,0,1,.988.987v9.282h1.61a38.683,38.683,0,0,1,26.3,10.127,33.238,33.238,0,0,1,10.98,24.427V166.4A.987.987,0,0,1,530.6,167.39Z" transform="translate(-431.789 -33.694)" fill="#1c1c1c" fill-rule="evenodd"/>
        <path id="Trazado_9081" data-name="Trazado 9081" d="M452.162,137.69a.985.985,0,0,1,1.86.648,31.136,31.136,0,0,0-1.309,5.139,32.606,32.606,0,0,0-.441,5.369v17.519h59.764V148.847a32.613,32.613,0,0,0-.44-5.369,31.253,31.253,0,0,0-1.31-5.139.985.985,0,0,1,1.86-.648,33.184,33.184,0,0,1,1.394,5.464,34.548,34.548,0,0,1,.471,5.693v18.506a.987.987,0,0,1-.988.987H451.285a.987.987,0,0,1-.988-.987V148.847a34.548,34.548,0,0,1,.471-5.693A33.184,33.184,0,0,1,452.162,137.69Z" transform="translate(-432.255 -34.644)" fill="#1c1c1c" fill-rule="evenodd"/>
        <path id="Trazado_9082" data-name="Trazado 9082" d="M492.735,97.151c0,2.341.27,14.279.27,14.279a28.056,28.056,0,0,1-20.613,0c0-2.619-.27-14.7-.27-14.7Q482.849,101.545,492.735,97.151Z" transform="translate(-432.804 -33.629)" fill="#e5e2d1" fill-rule="evenodd"/>
        <path id="Trazado_9083" data-name="Trazado 9083" d="M493.7,97.126c0,2.734.266,14.227.266,14.26a.985.985,0,0,1-.622.935v0a28.248,28.248,0,0,1-10.472,2.031,31.4,31.4,0,0,1-10.843-2.023.986.986,0,0,1-.647-.926c0-2.984-.267-14.644-.267-14.677a.984.984,0,0,1,1.384-.918,25.981,25.981,0,0,0,10.135,2.425,22.467,22.467,0,0,0,9.679-2.009.983.983,0,0,1,1.38.9Zm-1.716,13.6c-.049-2.181-.2-8.936-.244-12.141a24.141,24.141,0,0,1-9.144,1.613,27.213,27.213,0,0,1-9.481-2c.065,3.056.209,9.887.237,12.5a29.12,29.12,0,0,0,9.521,1.67A26.2,26.2,0,0,0,491.981,110.731Z" transform="translate(-432.779 -33.604)" fill="#1c1c1c" fill-rule="evenodd"/>
        <path id="Trazado_9084" data-name="Trazado 9084" d="M493.893,111.061l-11.917,55.832-1.929-.409,11.918-55.831Z" transform="translate(-433.004 -33.98)" fill="#1c1c1c" fill-rule="evenodd"/>
        <path id="Trazado_9085" data-name="Trazado 9085" d="M490.97,123.715l14.277,14.277L488.39,167.5l-1.713-.972,16.111-28.2-13.214-13.214Z" transform="translate(-433.171 -34.309)" fill="#1c1c1c" fill-rule="evenodd"/>
        <path id="Trazado_9086" data-name="Trazado 9086" d="M473.055,110.652l10.307,48.285-1.929.409-10.307-48.285Z" transform="translate(-432.779 -33.98)" fill="#1c1c1c" fill-rule="evenodd"/>
        <path id="Trazado_9087" data-name="Trazado 9087" d="M475.324,125.112l-13.214,13.214,16.111,28.2-1.714.972L459.65,137.992l14.276-14.277Z" transform="translate(-432.49 -34.309)" fill="#1c1c1c" fill-rule="evenodd"/>
        <path id="Trazado_9088" data-name="Trazado 9088" d="M475.661,128.112l6.786,31.066,6.786-31.066,2.56-16.073a26,26,0,0,1-18.691,0Z" transform="translate(-432.829 -34.015)" fill="#dbdbdb" fill-rule="evenodd"/>
        <path id="Trazado_9089" data-name="Trazado 9089" d="M476.6,127.879l5.822,26.649c3.12-14.285,5.838-26.748,8.113-41.036a25.947,25.947,0,0,1-7.935,1.247,28.431,28.431,0,0,1-8.3-1.279l2.3,14.42Zm4.857,31.481L474.67,128.3h0l-2.559-16.054a.987.987,0,0,1,1.293-1.157,27.146,27.146,0,0,0,9.193,1.68,24.266,24.266,0,0,0,8.8-1.664.984.984,0,0,1,1.337,1.068l-2.549,16.008a1.067,1.067,0,0,1-.019.121l-6.782,31.047a.987.987,0,0,1-1.933.017Z" transform="translate(-432.803 -33.989)" fill="#1c1c1c" fill-rule="evenodd"/>
        <path id="Trazado_9115" data-name="Trazado 9115" d="M22.74,0h3.286a22.74,22.74,0,0,1,22.74,22.74V43.963A22.74,22.74,0,0,1,26.026,66.7H22.74A22.74,22.74,0,0,1,0,43.963V22.74A22.74,22.74,0,0,1,22.74,0Z" transform="translate(25.678 3.08)" fill="#e5e2d1"/>
        <path id="Trazado_9090" data-name="Trazado 9090" d="M482.488,34.146a25.442,25.442,0,0,1,25.37,25.371V77.454a25.37,25.37,0,0,1-50.741,0V59.517a25.443,25.443,0,0,1,25.371-25.371Zm16.521,8.849a23.4,23.4,0,0,0-39.917,16.522V77.454a23.4,23.4,0,0,0,46.791,0V59.517A23.324,23.324,0,0,0,499.009,42.995Z" transform="translate(-432.427 -32.054)" fill="#1c1c1c" fill-rule="evenodd"/>
        <path id="Trazado_9091" data-name="Trazado 9091" d="M471.3,72.813a2.928,2.928,0,1,0-2.927-2.928A2.934,2.934,0,0,0,471.3,72.813Z" transform="translate(-432.71 -32.88)" fill="#e5e2d1" fill-rule="evenodd"/>
        <path id="Trazado_9092" data-name="Trazado 9092" d="M471.273,65.944a3.9,3.9,0,0,1,2.766,1.146h0a3.909,3.909,0,0,1,0,5.533l0,0a3.915,3.915,0,1,1-2.766-6.684Zm1.374,2.541a1.948,1.948,0,1,0,.566,1.374,1.939,1.939,0,0,0-.566-1.374Z" transform="translate(-432.684 -32.854)" fill="#1c1c1c" fill-rule="evenodd"/>
        <path id="Trazado_9093" data-name="Trazado 9093" d="M494.836,72.813a2.928,2.928,0,1,0-2.928-2.928A2.933,2.933,0,0,0,494.836,72.813Z" transform="translate(-433.302 -32.88)" fill="#e5e2d1" fill-rule="evenodd"/>
        <path id="Trazado_9094" data-name="Trazado 9094" d="M494.811,67.919a1.942,1.942,0,0,0-1.374,3.313h0a1.941,1.941,0,0,0,2.744-2.745h0a1.938,1.938,0,0,0-1.374-.566Zm-2.769-.829a3.911,3.911,0,0,1,5.533,0h0a3.912,3.912,0,0,1,0,5.533l0,0a3.911,3.911,0,0,1-5.533,0v0a3.911,3.911,0,0,1,0-5.533Z" transform="translate(-433.277 -32.854)" fill="#1c1c1c" fill-rule="evenodd"/>
        <path id="Trazado_9095" data-name="Trazado 9095" d="M483.637,82.131a.987.987,0,1,1-1.975,0c0-1.653.006-2.5.471-3.144l0,0c.56-.77,1.287-.805,2.71-.805a1.036,1.036,0,0,0,1.045-.671,1.617,1.617,0,0,0,.1-.549,1.7,1.7,0,0,0-.092-.558.733.733,0,0,0-.637-.576.987.987,0,0,1-.987-.988V67.393a.987.987,0,1,1,1.975,0v6.649a2.775,2.775,0,0,1,1.517,1.721,3.712,3.712,0,0,1,.191,1.206,3.583,3.583,0,0,1-.219,1.227,2.912,2.912,0,0,1-2.889,1.959c-.752,0-1.1-.023-1.113-.013l0,0A8.024,8.024,0,0,0,483.637,82.131Z" transform="translate(-433.044 -32.866)" fill="#1c1c1c" fill-rule="evenodd"/>
        <path id="Trazado_9096" data-name="Trazado 9096" d="M491.024,86.224a8.737,8.737,0,0,1-8.571,7.189h0a8.737,8.737,0,0,1-8.571-7.189Z" transform="translate(-432.849 -33.365)" fill="#fff" fill-rule="evenodd"/>
        <path id="Trazado_9097" data-name="Trazado 9097" d="M491.961,86.42a9.693,9.693,0,0,1-19.076-.052.987.987,0,0,1,.8-1.142.922.922,0,0,1,.17-.015H491a.987.987,0,0,1,.987.988.973.973,0,0,1-.024.221ZM487.374,90.6a7.774,7.774,0,0,0,2.351-3.409h-14.6a7.76,7.76,0,0,0,2.352,3.409,7.677,7.677,0,0,0,9.892,0Z" transform="translate(-432.823 -33.339)" fill="#1c1c1c" fill-rule="evenodd"/>
        <path id="Trazado_9098" data-name="Trazado 9098" d="M458.146,44.064c.126-1.836,1.044-3.272,2.149-3.272h1.67c1.19,0,2.163,1.666,2.163,3.7v11.8h0c0,6.1-2.6,11.2-6,12.234V44.494Z" transform="translate(-432.452 -32.221)" fill="#153f67" fill-rule="evenodd"/>
        <path id="Trazado_9099" data-name="Trazado 9099" d="M457.137,43.973a5.929,5.929,0,0,1,.874-2.809,2.735,2.735,0,0,1,2.258-1.384h1.67a2.817,2.817,0,0,1,2.381,1.577,6.274,6.274,0,0,1,.771,3.113v11.8a19.347,19.347,0,0,1-1.8,8.4,8.682,8.682,0,0,1-4.9,4.781l-1.273.386V44.469l0-.03.016-.466Zm2.519-1.728a3.932,3.932,0,0,0-.552,1.86l-.014.365h0V66.909A8.346,8.346,0,0,0,461.52,63.8a17.362,17.362,0,0,0,1.595-7.531v-11.8a4.28,4.28,0,0,0-.5-2.117c-.215-.368-.458-.6-.676-.6h-1.67C460.074,41.754,459.855,41.94,459.655,42.244Z" transform="translate(-432.427 -32.196)" fill="#1c1c1c" fill-rule="evenodd"/>
        <path id="Trazado_9100" data-name="Trazado 9100" d="M508.028,54.526l-.013,0a1.956,1.956,0,0,0-1.775-1.912h-1.379a2.009,2.009,0,0,0-1.788,2.163v6.895h0c0,3.563,2.149,6.547,4.955,7.149v-14.3Z" transform="translate(-433.583 -32.519)" fill="#153f67" fill-rule="evenodd"/>
        <path id="Trazado_9101" data-name="Trazado 9101" d="M507.014,54.642l0-.046a1.341,1.341,0,0,0-.33-.786.651.651,0,0,0-.464-.231h-1.379a.679.679,0,0,0-.5.277,1.406,1.406,0,0,0-.3.9V61.65a7.2,7.2,0,0,0,1.225,4.093,5.359,5.359,0,0,0,1.754,1.635V54.642Zm1.107-2.174a3.137,3.137,0,0,1,.565.864l.3-.07V70.019l-1.192-.256a6.879,6.879,0,0,1-4.156-2.9,9.174,9.174,0,0,1-1.581-5.213V54.755a3.4,3.4,0,0,1,.753-2.152v0a2.619,2.619,0,0,1,2.023-.994h1.379A2.59,2.59,0,0,1,508.121,52.468Z" transform="translate(-433.558 -32.493)" fill="#1c1c1c" fill-rule="evenodd"/>
        <path id="Trazado_9102" data-name="Trazado 9102" d="M481.3,53.974a18.877,18.877,0,0,1-17.985-13.328c-1.889-6.167,6.367-7.633,11.069-7.633h13.832a18.79,18.79,0,0,1,17.9,24.53,18.68,18.68,0,0,0-10.989-3.569Z" transform="translate(-432.576 -32.025)" fill="#153f67" fill-rule="evenodd"/>
        <path id="Trazado_9103" data-name="Trazado 9103" d="M481.277,54.937a19.669,19.669,0,0,1-11.74-3.888,19.916,19.916,0,0,1-7.185-10.139,6.825,6.825,0,0,1-.323-2,5.154,5.154,0,0,1,1.8-3.941,10.245,10.245,0,0,1,3.9-2.05A23.74,23.74,0,0,1,474.362,32h13.832a19.6,19.6,0,0,1,6.564,1.127,19.816,19.816,0,0,1,5.831,3.266,20.023,20.023,0,0,1,4.971,5.939,19.618,19.618,0,0,1,2.307,7.339q.056.513.085,1.059c.02.383.031.737.031,1.06a19.784,19.784,0,0,1-.949,6.029l-.416,1.295-1.1-.8a17.652,17.652,0,0,0-10.41-3.38Zm-10.566-5.469a17.7,17.7,0,0,0,10.566,3.493h13.831a19.657,19.657,0,0,1,10.411,2.98q.167-.692.278-1.4a17.873,17.873,0,0,0,.211-2.753c0-.355-.009-.675-.023-.959-.017-.312-.043-.63-.077-.951a17.656,17.656,0,0,0-2.077-6.6,17.973,17.973,0,0,0-9.729-8.294,17.675,17.675,0,0,0-5.907-1.011H474.362a21.712,21.712,0,0,0-6.062.828,8.317,8.317,0,0,0-3.147,1.625,3.257,3.257,0,0,0-1.147,2.483,4.824,4.824,0,0,0,.23,1.42A17.943,17.943,0,0,0,470.711,49.468Z" transform="translate(-432.55 -32)" fill="#1c1c1c" fill-rule="evenodd"/>
        <path id="Trazado_9104" data-name="Trazado 9104" d="M457.975,65.4l-.015,0a2.171,2.171,0,0,0-2.148-1.912h-1.67a2.17,2.17,0,0,0-2.164,2.163v6.895h0a7.288,7.288,0,0,0,6,7.149V65.4Z" transform="translate(-432.297 -32.793)" fill="#e5e2d1" fill-rule="evenodd"/>
        <path id="Trazado_9105" data-name="Trazado 9105" d="M456.962,65.545l-.007-.059a1.184,1.184,0,0,0-1.169-1.036h-1.67a1.183,1.183,0,0,0-1.177,1.176V72.52a6.244,6.244,0,0,0,1.467,4.021,6.325,6.325,0,0,0,2.555,1.832V65.545Zm.914-2.272a3.174,3.174,0,0,1,.738.969l.323-.061V80.847l-1.157-.206a8.279,8.279,0,0,1-6.815-8.121V65.625a3.157,3.157,0,0,1,3.152-3.151h1.67A3.137,3.137,0,0,1,457.876,63.272Z" transform="translate(-432.272 -32.767)" fill="#1c1c1c" fill-rule="evenodd"/>
        <path id="Trazado_9106" data-name="Trazado 9106" d="M508.156,65.4l.015,0a2.17,2.17,0,0,1,2.149-1.912h1.67a2.17,2.17,0,0,1,2.164,2.163v6.895h0a7.288,7.288,0,0,1-6,7.149V65.4Z" transform="translate(-433.711 -32.793)" fill="#e5e2d1" fill-rule="evenodd"/>
        <path id="Trazado_9107" data-name="Trazado 9107" d="M509.125,65.485l-.008.061V78.372a6.321,6.321,0,0,0,2.556-1.832,6.244,6.244,0,0,0,1.467-4.021V65.625a1.182,1.182,0,0,0-1.177-1.176h-1.67a1.184,1.184,0,0,0-1.169,1.036Zm-1.661-1.242a3.172,3.172,0,0,1,.739-.971,3.14,3.14,0,0,1,2.091-.8h1.67a3.157,3.157,0,0,1,3.152,3.151V72.52a8.279,8.279,0,0,1-6.815,8.121l-1.158.206V64.183Z" transform="translate(-433.686 -32.767)" fill="#1c1c1c" fill-rule="evenodd"/>
        <path id="Trazado_9108" data-name="Trazado 9108" d="M458.471,55.625q1.152-3.142,5.656-3.952V44.494a6.432,6.432,0,0,0-.042-.733c-.2-1.688-1.077-2.969-2.121-2.969h-1.67c-1.1,0-2.023,1.436-2.149,3.272l-.016.431V57.079A6.37,6.37,0,0,1,458.471,55.625Z" transform="translate(-432.452 -32.221)" fill="#153f67" fill-rule="evenodd"/>
        <path id="Trazado_9109" data-name="Trazado 9109" d="M459.092,52.867a6.847,6.847,0,0,1,.781-.634,9.469,9.469,0,0,1,3.242-1.384v-6.38c0-.132,0-.235-.007-.311s-.016-.191-.029-.306a3.686,3.686,0,0,0-.576-1.678c-.187-.262-.387-.42-.564-.42h-1.67c-.2,0-.413.186-.613.49a3.932,3.932,0,0,0-.552,1.86l-.014.365h0v8.4Zm1.907.979a4.326,4.326,0,0,0-1.628,2.094,5.456,5.456,0,0,0-.287,1.229l-1.967,16.5v-29.2l0-.03.016-.466a5.929,5.929,0,0,1,.874-2.809,2.735,2.735,0,0,1,2.258-1.384h1.67a2.682,2.682,0,0,1,2.169,1.254,5.663,5.663,0,0,1,.932,2.588c.015.123.026.263.036.421v0c.01.167.015.309.015.423v8l-.814.145A8.241,8.241,0,0,0,461,53.846Z" transform="translate(-432.427 -32.196)" fill="#1c1c1c" fill-rule="evenodd"/>
        <path id="Trazado_9110" data-name="Trazado 9110" d="M465.844,64.369a.984.984,0,1,1-1.388-1.4,9.525,9.525,0,0,1,13.475,0,.985.985,0,1,1-1.389,1.4,7.555,7.555,0,0,0-10.7,0Zm22.946,0a.985.985,0,1,1-1.389-1.4,9.533,9.533,0,0,1,13.479,0,.987.987,0,1,1-1.4,1.4,7.549,7.549,0,0,0-10.693,0Z" transform="translate(-432.604 -32.709)" fill="#1c1c1c" fill-rule="evenodd"/>
        <path id="Trazado_9111" data-name="Trazado 9111" d="M490.364,123.963l6.244,6.245,11.626-3.116-7.46-16.038-7.587-5.231Z" transform="translate(-433.263 -33.858)" fill="#315c8f" fill-rule="evenodd"/>
        <path id="Trazado_9112" data-name="Trazado 9112" d="M491.387,123.572l5.49,5.49,9.941-2.663-6.852-14.732-6.074-4.188-2.505,16.092Zm4.5,7.29-6.595-6.6q1.566-10.094,3.141-20.187l9.1,6.273L509.6,127.7l-13.311,3.567Z" transform="translate(-433.236 -33.814)" fill="#1c1c1c" fill-rule="evenodd"/>
        <path id="Trazado_9113" data-name="Trazado 9113" d="M474.551,123.963l-6.245,6.245-11.626-3.116,7.46-16.038,7.587-5.231Z" transform="translate(-432.416 -33.858)" fill="#315c8f" fill-rule="evenodd"/>
        <path id="Trazado_9114" data-name="Trazado 9114" d="M475.213,124.618l-6.646,6.646L455.255,127.7q4.034-8.673,8.068-17.345l9.1-6.273,3.143,20.187-.352.352Zm-7.239,4.444,5.491-5.49-2.5-16.092-6.075,4.188L458.033,126.4Z" transform="translate(-432.38 -33.814)" fill="#1c1c1c" fill-rule="evenodd"/>
      </g>
      <g id="Grupo_8802" data-name="Grupo 8802" transform="translate(200.569 249.753)">
        <path id="Trazado_9078" data-name="Trazado 9078" d="M12.886,0A12.886,12.886,0,1,1,0,12.886,12.886,12.886,0,0,1,12.886,0Z" transform="translate(0 18.223) rotate(-45)" fill="#5beba8" stroke="#334f87" stroke-linecap="round" stroke-width="1"/>
        <g id="Grupo_8666" data-name="Grupo 8666" transform="translate(10.471 12.297)">
          <path id="Trazado_8917" data-name="Trazado 8917" d="M484.281,151.715a1.274,1.274,0,0,1-.9-.374l-3.184-3.184A1.277,1.277,0,0,1,482,146.351l2.281,2.28,9.027-9.026a1.277,1.277,0,0,1,1.806,1.806l-9.93,9.93A1.274,1.274,0,0,1,484.281,151.715Z" transform="translate(-479.821 -139.231)" fill="#f2f2f2" stroke="#315c8f" stroke-width="1"/>
        </g>
      </g>
    </g>
  </g>
</svg>
