<svg xmlns="http://www.w3.org/2000/svg" width="158.615" height="137.011" viewBox="0 0 158.615 137.011">
  <g id="Grupo_8680" data-name="Grupo 8680" transform="translate(-69.427 -191.925)">
    <g id="Grupo_8678" data-name="Grupo 8678" transform="matrix(0.966, -0.259, 0.259, 0.966, 66.049, 239.815)">
      <g id="Grupo_8668" data-name="Grupo 8668" transform="translate(10.239 1.889)">
        <path id="Trazado_8918" data-name="Trazado 8918" d="M12.126,10.158a.91.91,0,0,1-.767,1H.767a.91.91,0,0,1-.767-1V1A.91.91,0,0,1,.767,0H11.359a.91.91,0,0,1,.767,1Z" transform="translate(1.007 1.007)" fill="#e3e5e8"/>
        <path id="Trazado_8919" data-name="Trazado 8919" d="M12.368,13.177H1.774A1.884,1.884,0,0,1,0,11.165V2.012A1.884,1.884,0,0,1,1.774,0H12.368a1.884,1.884,0,0,1,1.774,2.012v9.153A1.884,1.884,0,0,1,12.368,13.177ZM2.014,11.163H12.128V2.014H2.034Z" transform="translate(0 0)" fill="#334f87"/>
      </g>
      <g id="Grupo_8669" data-name="Grupo 8669" transform="translate(0 13.052)">
        <path id="Trazado_8920" data-name="Trazado 8920" d="M113.494,70.248a7.069,7.069,0,0,1-7.182,6.95H7.182A7.067,7.067,0,0,1,0,70.248V6.95A7.067,7.067,0,0,1,7.182,0h99.13a7.069,7.069,0,0,1,7.182,6.95Z" transform="translate(1.009 1.007)" fill="#47bbe5"/>
        <path id="Trazado_8921" data-name="Trazado 8921" d="M107.321,79.212H8.19A8.084,8.084,0,0,1,0,71.255V7.957A8.084,8.084,0,0,1,8.19,0h99.13a8.085,8.085,0,0,1,8.191,7.957v63.3A8.085,8.085,0,0,1,107.321,79.212ZM8.19,2.014A6.071,6.071,0,0,0,2.014,7.957v63.3A6.069,6.069,0,0,0,8.19,77.2h99.13a6.069,6.069,0,0,0,6.177-5.943V7.957a6.071,6.071,0,0,0-6.177-5.943Z" fill="#334f87"/>
      </g>
      <g id="Grupo_8670" data-name="Grupo 8670" transform="translate(5.619 19.008)">
        <path id="Trazado_8922" data-name="Trazado 8922" d="M102.264,59.933c0,2.981-2.9,5.4-6.473,5.4H6.473C2.9,65.328,0,62.913,0,59.933V5.4C0,2.419,2.9,0,6.473,0H95.791c3.575,0,6.473,2.419,6.473,5.4Z" transform="translate(1.007 1.007)" fill="#e3e5e8"/>
        <path id="Trazado_8923" data-name="Trazado 8923" d="M96.8,67.342H7.48C3.355,67.342,0,64.47,0,60.94V6.406C0,2.874,3.355,0,7.48,0H96.8c4.125,0,7.48,2.874,7.48,6.406V60.94C104.278,64.47,100.922,67.342,96.8,67.342ZM7.48,2.014c-3.013,0-5.466,1.97-5.466,4.392V60.94c0,2.419,2.453,4.388,5.466,4.388H96.8c3.013,0,5.466-1.97,5.466-4.388V6.406c0-2.423-2.453-4.392-5.466-4.392Z" fill="#334f87"/>
      </g>
      <g id="Grupo_8671" data-name="Grupo 8671" transform="translate(34.47 28.322)">
        <circle id="Elipse_14" data-name="Elipse 14" cx="22.279" cy="22.279" r="22.279" transform="translate(1.006 1.007)" fill="#e3e5e8"/>
        <path id="Trazado_8924" data-name="Trazado 8924" d="M23.285,46.572A23.286,23.286,0,1,1,46.572,23.287,23.311,23.311,0,0,1,23.285,46.572Zm0-44.558A21.272,21.272,0,1,0,44.558,23.287,21.3,21.3,0,0,0,23.285,2.014Z" transform="translate(0 0)" fill="#334f87"/>
      </g>
      <g id="Grupo_8672" data-name="Grupo 8672" transform="translate(40.017 33.87)">
        <circle id="Elipse_15" data-name="Elipse 15" cx="16.731" cy="16.731" r="16.731" transform="translate(1.008 1.007)" fill="#6fc5e2"/>
        <path id="Trazado_8925" data-name="Trazado 8925" d="M17.739,35.476A17.738,17.738,0,1,1,35.478,17.739,17.759,17.759,0,0,1,17.739,35.476Zm0-33.462A15.724,15.724,0,1,0,33.464,17.739,15.744,15.744,0,0,0,17.739,2.014Z" transform="translate(0 0)" fill="#334f87"/>
      </g>
      <g id="Grupo_8673" data-name="Grupo 8673" transform="translate(48.421 42.546)">
        <path id="Trazado_8926" data-name="Trazado 8926" d="M1.007,16.867A1.008,1.008,0,0,1,.3,15.147L15.149.295a1.007,1.007,0,0,1,1.424,1.424L1.72,16.571A1,1,0,0,1,1.007,16.867Z" transform="translate(0 0)" fill="#334f87"/>
      </g>
      <g id="Grupo_8674" data-name="Grupo 8674" transform="translate(52.868 49.176)">
        <path id="Trazado_8927" data-name="Trazado 8927" d="M1.007,14.223A1.008,1.008,0,0,1,.3,12.5L12.5.295a1.007,1.007,0,0,1,1.424,1.424L1.72,13.927A1,1,0,0,1,1.007,14.223Z" transform="translate(0 0)" fill="#334f87"/>
      </g>
      <g id="Grupo_8675" data-name="Grupo 8675" transform="translate(58.573 56.559)">
        <path id="Trazado_8928" data-name="Trazado 8928" d="M1.007,8.685A1.006,1.006,0,0,1,.3,6.967L6.966.295A1.007,1.007,0,0,1,8.39,1.718L1.72,8.391A1,1,0,0,1,1.007,8.685Z" fill="#334f87"/>
      </g>
      <g id="Grupo_8676" data-name="Grupo 8676" transform="translate(12.045 28.322)">
        <rect id="Rectángulo_2223" data-name="Rectángulo 2223" width="20.643" height="7.049" rx="1.75" transform="translate(1.006 1.007)" fill="#4388c5"/>
        <path id="Trazado_8929" data-name="Trazado 8929" d="M18.125,9.063H4.531A4.531,4.531,0,1,1,4.531,0H18.125a4.531,4.531,0,1,1,0,9.063ZM4.531,2.014a2.517,2.517,0,1,0,0,5.035H18.125a2.517,2.517,0,1,0,0-5.035Z" fill="#334f87"/>
      </g>
      <g id="Grupo_8677" data-name="Grupo 8677" transform="translate(30.799 0)">
        <path id="Trazado_8930" data-name="Trazado 8930" d="M53.494,12.964H0L3.879,2.391A3.645,3.645,0,0,1,7.3,0H46.192a3.65,3.65,0,0,1,3.426,2.391Z" transform="translate(1.007 1.009)" fill="#47bbe5"/>
        <path id="Trazado_8931" data-name="Trazado 8931" d="M54.5,14.982H1.007a1.007,1.007,0,0,1-.944-1.355L3.94,3.053A4.667,4.667,0,0,1,8.31,0H47.2a4.676,4.676,0,0,1,4.372,3.053l3.877,10.573a1.007,1.007,0,0,1-.944,1.355ZM2.451,12.966H53.06L49.678,3.748A2.649,2.649,0,0,0,47.2,2.016H8.31a2.646,2.646,0,0,0-2.477,1.73Z" transform="translate(0)" fill="#334f87"/>
      </g>
    </g>
    <g id="Grupo_8646" data-name="Grupo 8646" transform="translate(149.998 201.171)">
      <path id="Trazado_8883" data-name="Trazado 8883" d="M-221.159-154.565s-3.064-18.832-4.086-19.855c-.954-.954-19.588-3.819-19.588-3.819s18.871-3.1,19.907-4.136c.942-.942,3.766-19.536,3.766-19.536s2.8,18.571,3.736,19.5c1.041,1.044,19.938,4.168,19.938,4.168s-18.8,3.027-19.8,4.036C-218.257-173.235-221.159-154.565-221.159-154.565Z" transform="translate(244.833 201.911)" fill="#f2f2f2" stroke="#707070" stroke-width="1"/>
    </g>
    <g id="Grupo_8614" data-name="Grupo 8614" transform="translate(142.163 192)">
      <path id="Trazado_8883-2" data-name="Trazado 8883" d="M-232.271-176.787s-1.626-9.993-2.168-10.536c-.506-.506-10.394-2.027-10.394-2.027s10.014-1.647,10.564-2.195c.5-.5,2-10.367,2-10.367s1.486,9.854,1.982,10.35c.552.554,10.58,2.212,10.58,2.212s-9.974,1.606-10.509,2.141C-230.731-186.694-232.271-176.787-232.271-176.787Z" transform="translate(244.833 201.911)" fill="#f2f2f2" stroke="#707070" stroke-width="1"/>
    </g>
    <g id="Grupo_8615" data-name="Grupo 8615" transform="translate(173.718 274.579)">
      <path id="Trazado_8883-3" data-name="Trazado 8883" d="M-217.712-147.671s-3.51-21.575-4.681-22.746c-1.093-1.093-22.44-4.375-22.44-4.375s21.619-3.555,22.806-4.739c1.079-1.079,4.315-22.381,4.315-22.381s3.209,21.275,4.28,22.345c1.193,1.2,22.841,4.775,22.841,4.775s-21.533,3.468-22.688,4.623C-214.387-169.059-217.712-147.671-217.712-147.671Z" transform="translate(244.833 201.911)" fill="#f2f2f2" stroke="#707070" stroke-width="1"/>
    </g>
  </g>
</svg>
