<svg xmlns="http://www.w3.org/2000/svg" width="19.512" height="20.629" viewBox="0 0 19.512 20.629">
  <g id="Grupo_8821" data-name="Grupo 8821" transform="translate(-14.176 -613.111)">
    <path id="Trazado_9132" data-name="Trazado 9132" d="M16.7,620.995c-.637-.085-.687-.122-.758-.571l-.251-.032V619.5H32.318v.888l-.248.038c-.084.466-.167.528-.755.56v7.378c.009.007.023.024.038.025.639.04.69.095.693.751,0,.225,0,.45,0,.7H15.974c0-.367-.02-.728.008-1.084a.384.384,0,0,1,.414-.354c.1,0,.195,0,.306,0Zm12.339,7.941c.055-.454.1-.486.739-.565V621c-.642-.094-.671-.116-.745-.574H25.518c-.069.456-.1.483-.742.575v7.376c.63.063.667.091.744.563Zm-6.554-8.512H18.968c-.053.439-.061.444-.736.58v7.375c.61.046.673.094.745.552h3.45c.111-.185.163-.372.286-.453a1.545,1.545,0,0,1,.519-.121v-7.363C22.6,620.912,22.574,620.889,22.487,620.424Z" transform="translate(-0.069 -0.335)" fill="none" stroke="#272525" stroke-miterlimit="10" stroke-width="0.5"/>
    <path id="Trazado_9133" data-name="Trazado 9133" d="M32,618.3H16.081a2.194,2.194,0,0,1,.18-.145q3.778-2.358,7.557-4.717a.312.312,0,0,1,.388-.019q3.787,2.371,7.581,4.73C31.838,618.179,31.886,618.217,32,618.3Zm-7.965-3.562a1.289,1.289,0,1,0,1.3,1.292A1.3,1.3,0,0,0,24.032,614.734Z" transform="translate(-0.09 0)" fill="none" stroke="#272525" stroke-miterlimit="10" stroke-width="0.5"/>
    <path id="Trazado_9134" data-name="Trazado 9134" d="M14.426,634.591v-1.042H33.438v1.042Z" transform="translate(0 -1.102)" fill="none" stroke="#272525" stroke-miterlimit="10" stroke-width="0.5"/>
    <path id="Trazado_9135" data-name="Trazado 9135" d="M15.357,632.459v-.917H32.6v.917Z" transform="translate(-0.051 -0.992)" fill="none" stroke="#272525" stroke-miterlimit="10" stroke-width="0.5"/>
  </g>
</svg>
