<svg xmlns="http://www.w3.org/2000/svg" width="15.836" height="20.357" viewBox="0 0 15.836 20.357">
  <g id="Grupo_8629" data-name="Grupo 8629" transform="translate(-553.763 -935.18)">
    <path id="Trazado_8893" data-name="Trazado 8893" d="M569.315,955.537H554.046a.283.283,0,0,1-.283-.283V942.985a.284.284,0,0,1,.283-.284h15.269a.284.284,0,0,1,.284.284v12.269A.283.283,0,0,1,569.315,955.537Zm-14.985-.566h14.7v-11.7h-14.7Z" fill="#153f67"/>
    <path id="Trazado_8894" data-name="Trazado 8894" d="M556.5,943.268a.284.284,0,0,1-.284-.283v-2.561a5.4,5.4,0,0,1,10.8,0,.284.284,0,1,1-.567,0,4.837,4.837,0,0,0-9.669,0v2.561A.283.283,0,0,1,556.5,943.268Z" fill="#153f67"/>
    <path id="Trazado_8895" data-name="Trazado 8895" d="M561.681,951.27a.283.283,0,0,1-.283-.284v-3.734a.283.283,0,1,1,.566,0v3.734A.283.283,0,0,1,561.681,951.27Z" fill="#153f67"/>
  </g>
</svg>
