<svg xmlns="http://www.w3.org/2000/svg" width="17.441" height="21.388" viewBox="0 0 17.441 21.388">
  <g id="Grupo_8644" data-name="Grupo 8644" transform="translate(-678.467 -1164.404)">
    <g id="Grupo_8639" data-name="Grupo 8639">
      <g id="Grupo_8636" data-name="Grupo 8636">
        <g id="Grupo_8635" data-name="Grupo 8635">
          <path id="Trazado_8899" data-name="Trazado 8899" d="M685.475,1174.42a2.076,2.076,0,1,1,2.075-2.076A2.078,2.078,0,0,1,685.475,1174.42Zm0-3.619a1.543,1.543,0,1,0,1.543,1.543A1.546,1.546,0,0,0,685.475,1170.8Z" fill="#153f67"/>
        </g>
      </g>
      <g id="Grupo_8638" data-name="Grupo 8638">
        <g id="Grupo_8637" data-name="Grupo 8637">
          <path id="Trazado_8900" data-name="Trazado 8900" d="M687.875,1178.4h-4.707a.267.267,0,0,1-.267-.266v-1.626a2.62,2.62,0,1,1,5.24,0v1.626A.266.266,0,0,1,687.875,1178.4Zm-4.441-.532h4.175v-1.36a2.087,2.087,0,1,0-4.175,0Z" fill="#153f67"/>
        </g>
      </g>
    </g>
    <g id="Grupo_8640" data-name="Grupo 8640">
      <path id="Trazado_8901" data-name="Trazado 8901" d="M693.033,1185.792H678.467v-19.2h14.566Zm-14-.566h13.434v-18.068H679.033Z" fill="#153f67"/>
    </g>
    <g id="Grupo_8641" data-name="Grupo 8641">
      <path id="Trazado_8902" data-name="Trazado 8902" d="M695.908,1183.346H692.75v-.566h2.592v-17.809H681.033v1.9h-.566V1164.4h15.441Z" fill="#153f67"/>
    </g>
    <g id="Grupo_8642" data-name="Grupo 8642">
      <rect id="Rect치ngulo_2219" data-name="Rect치ngulo 2219" width="7.063" height="0.566" transform="translate(681.906 1180.561)" fill="#153f67"/>
    </g>
    <g id="Grupo_8643" data-name="Grupo 8643">
      <rect id="Rect치ngulo_2220" data-name="Rect치ngulo 2220" width="7.063" height="0.566" transform="translate(681.906 1182.311)" fill="#153f67"/>
    </g>
  </g>
</svg>
