<svg id="Grupo_8682" data-name="Grupo 8682" xmlns="http://www.w3.org/2000/svg" width="64.922" height="64.923" viewBox="0 0 32.922 32.923">
  <path id="Trazado_2140" data-name="Trazado 2140" d="M7.3,149.273,6.15,153.551l-4.189.089a16.49,16.49,0,0,1-.121-15.371h0l3.729.684L7.2,142.658a9.824,9.824,0,0,0,.092,6.614Z" transform="translate(0 -129.377)" fill="#fbbb00"/>
  <path id="Trazado_2141" data-name="Trazado 2141" d="M277.44,208.176a16.455,16.455,0,0,1-5.868,15.912h0l-4.7-.24-.665-4.15a9.811,9.811,0,0,0,4.221-5.01h-8.8v-6.512H277.44Z" transform="translate(-244.805 -194.79)" fill="#518ef8"/>
  <path id="Trazado_2142" data-name="Trazado 2142" d="M55.313,318.811h0a16.466,16.466,0,0,1-24.8-5.036l5.334-4.367a9.79,9.79,0,0,0,14.108,5.013Z" transform="translate(-28.547 -289.513)" fill="#28b446"/>
  <path id="Trazado_2143" data-name="Trazado 2143" d="M53.752,3.79,48.419,8.156a9.789,9.789,0,0,0-14.431,5.126l-5.363-4.39h0a16.464,16.464,0,0,1,25.128-5.1Z" transform="translate(-26.783)" fill="#f14336"/>
</svg>
