<svg id="Grupo_8647" data-name="Grupo 8647" xmlns="http://www.w3.org/2000/svg" width="21.208" height="8.844" viewBox="0 0 21.208 8.844">
  <path id="Trazado_8903" data-name="Trazado 8903" d="M910.776,304.58l-.139.1a.284.284,0,0,0,0,.455,17.357,17.357,0,0,0,20.817,0,.283.283,0,0,0,0-.454A17.4,17.4,0,0,0,910.776,304.58Zm.509.332a16.836,16.836,0,0,1,19.514,0A16.8,16.8,0,0,1,911.285,304.912Z" transform="translate(-910.52 -299.759)" fill="#153f67"/>
  <path id="Trazado_8904" data-name="Trazado 8904" d="M918.169,304.934a2.872,2.872,0,1,0,2.872-2.873A2.875,2.875,0,0,0,918.169,304.934Zm5.178,0a2.305,2.305,0,1,1-2.306-2.306A2.308,2.308,0,0,1,923.347,304.934Z" transform="translate(-910.52 -299.759)" fill="#153f67"/>
  <path id="Trazado_8905" data-name="Trazado 8905" d="M931.571,302.342c-11.629-5.791-20.829-.044-20.92.015a.283.283,0,1,0,.306.477,18.48,18.48,0,0,1,5.889-2.135,22.536,22.536,0,0,1,14.472,2.15.274.274,0,0,0,.126.03.283.283,0,0,0,.127-.537Z" transform="translate(-910.52 -299.759)" fill="#153f67"/>
</svg>
