<svg id="Grupo_8627" data-name="Grupo 8627" xmlns="http://www.w3.org/2000/svg" width="12.882" height="20.444" viewBox="0 0 12.882 20.444">
  <path id="Trazado_8891" data-name="Trazado 8891" d="M612.909,1081.614a5.016,5.016,0,1,1,5.016-5.017A5.022,5.022,0,0,1,612.909,1081.614Zm0-9.466a4.45,4.45,0,1,0,4.449,4.449A4.455,4.455,0,0,0,612.909,1072.148Z" transform="translate(-606.589 -1071.581)" fill="#153f67"/>
  <path id="Trazado_8892" data-name="Trazado 8892" d="M619.187,1092.025H606.873a.283.283,0,0,1-.284-.283v-4.254a6.441,6.441,0,1,1,12.882,0v4.254A.283.283,0,0,1,619.187,1092.025Zm-12.031-.566H618.9v-3.971a5.874,5.874,0,1,0-11.748,0Z" transform="translate(-606.589 -1071.581)" fill="#153f67"/>
</svg>
