<svg xmlns="http://www.w3.org/2000/svg" width="17.694" height="17.575" viewBox="0 0 17.694 17.575">
  <g id="Grupo_8822" data-name="Grupo 8822" transform="translate(-602.771 -388.142)">
    <path id="Trazado_9136" data-name="Trazado 9136" d="M616.677,397.329a.285.285,0,0,0-.4,0l-1.578,1.578-5.035-5.034,1.641-1.641a.285.285,0,0,0,0-.4l-3.607-3.607a.285.285,0,0,0-.4,0l-4.443,4.443a.285.285,0,0,0,0,.4l10.621,10.621a.284.284,0,0,0,.4-.4l-10.42-10.421,2.9-2.9,3.206,3.206-.5.5a.283.283,0,0,0,0,.4l5.436,5.436a.284.284,0,0,0,.4,0l.527-.526,3.281,3.281-2.968,2.968a.284.284,0,0,0,.4.4l4.242-4.242a.283.283,0,0,0,0-.4Zm-9.918-7.764.738-.738,3.207,3.206-.739.739Zm12.349,12.3-3.282-3.281.653-.652,3.3,3.262Z" fill="#272525"/>
  </g>
</svg>
