<svg xmlns="http://www.w3.org/2000/svg" xmlns:xlink="http://www.w3.org/1999/xlink" width="182.016" height="56.228" viewBox="0 0 182.016 56.228">
  <defs>
    <clipPath id="clip-path">
      <path id="Trazado_8874" data-name="Trazado 8874" d="M777.145,127.079l8.865.017-6.563-14.941,10.943-16.532L780,95.158l-4.85,7.3-3.289-7.447-9.185-.029,7.075,15.684-8.507,12.823,6,7.244,6.863-10.429Z" transform="translate(-761.244 -94.985)" fill="none"/>
    </clipPath>
    <filter id="Trazado_8873" x="22.806" y="-1.57" width="48.748" height="59.085" filterUnits="userSpaceOnUse">
      <feOffset input="SourceAlpha"/>
      <feGaussianBlur stdDeviation="4" result="blur"/>
      <feFlood flood-opacity="0.451"/>
      <feComposite operator="in" in2="blur"/>
      <feComposite in="SourceGraphic"/>
    </filter>
  </defs>
  <g id="Grupo_8610" data-name="Grupo 8610" transform="translate(-699.666 -73.285)">
    <g id="Grupo_8604" data-name="Grupo 8604" transform="translate(699.666 73.285)">
      <g id="Grupo_8603" data-name="Grupo 8603">
        <g id="Grupo_8600" data-name="Grupo 8600">
          <g id="Grupo_8599" data-name="Grupo 8599">
            <path id="Trazado_8865" data-name="Trazado 8865" d="M729.173,110.77l-1.98-5.205H710.332l-1.98,5.318a18.6,18.6,0,0,1-1.98,4.2,3.147,3.147,0,0,1-2.687,1.089,3.939,3.939,0,0,1-2.8-1.161,3.547,3.547,0,0,1-1.217-2.63,5.874,5.874,0,0,1,.282-1.754q.283-.906.934-2.518l10.609-26.932q.451-1.161,1.089-2.787a14.125,14.125,0,0,1,1.358-2.7,5.521,5.521,0,0,1,1.9-1.74,5.811,5.811,0,0,1,2.9-.665,5.883,5.883,0,0,1,2.928.665,5.637,5.637,0,0,1,1.9,1.712,11.944,11.944,0,0,1,1.217,2.25q.5,1.2,1.259,3.21L739.4,114.285a10.69,10.69,0,0,1,.967,4.3,3.433,3.433,0,0,1-1.285,2.472c-.8.8-.879,1.4-2.01,1.369-.716-.022-1.7.16-2.161-.135a5.159,5.159,0,0,1-1.226-1.033c-.321-.406-3.194-7.429-3.561-8.269S729.437,111.411,729.173,110.77ZM712.537,99.256h12.392L718.677,82.14Z" transform="translate(-699.666 -73.285)" fill="#fff"/>
          </g>
        </g>
        <g id="Grupo_8602" data-name="Grupo 8602" transform="translate(60.972 0.185)">
          <g id="Grupo_8601" data-name="Grupo 8601">
            <path id="Trazado_8866" data-name="Trazado 8866" d="M833.127,112.566H817.758a10.417,10.417,0,0,0,1.079,4.72,7.222,7.222,0,0,0,6.634,4.115,9.4,9.4,0,0,0,2.576-.331,8.376,8.376,0,0,0,2.26-1.036,17.317,17.317,0,0,0,2.014-1.511q.92-.806,2.389-2.187a2.576,2.576,0,0,1,1.727-.519,2.847,2.847,0,0,1,1.957.662,2.366,2.366,0,0,1,.748,1.871,5.114,5.114,0,0,1-.834,2.49,9.893,9.893,0,0,1-2.518,2.734,14.353,14.353,0,0,1-4.231,2.173,18.233,18.233,0,0,1-5.856.864q-7.57,0-11.771-4.318t-4.2-11.713a19.542,19.542,0,0,1,1.036-6.462,14.262,14.262,0,0,1,3.021-5.109,13.121,13.121,0,0,1,4.893-3.266,17.577,17.577,0,0,1,6.447-1.137,15.285,15.285,0,0,1,7.9,1.943,12.779,12.779,0,0,1,4.936,5.022,13.2,13.2,0,0,1,1.64,6.274q0,2.965-1.7,3.842A10.567,10.567,0,0,1,833.127,112.566Zm-15.369-4.461H832a9.554,9.554,0,0,0-2.173-6.029,6.506,6.506,0,0,0-4.964-2,6.292,6.292,0,0,0-4.821,2.03A10.092,10.092,0,0,0,817.758,108.105Z" transform="translate(-809.728 -82.98)" fill="#fff"/>
            <path id="Trazado_8867" data-name="Trazado 8867" d="M890.352,112.76v-.777a19.971,19.971,0,0,1-3.123,2.95,11.752,11.752,0,0,1-3.338,1.727,12.549,12.549,0,0,1-3.929.591,11.579,11.579,0,0,1-5.224-1.195,12.192,12.192,0,0,1-4.158-3.41,15.537,15.537,0,0,1-2.662-5.209,22.244,22.244,0,0,1-.907-6.476q0-7.367,3.6-11.483a11.966,11.966,0,0,1,9.469-4.116,12.713,12.713,0,0,1,5.727,1.166,15.972,15.972,0,0,1,4.548,3.583v-11.6a5.871,5.871,0,0,1,.964-3.655,3.28,3.28,0,0,1,2.748-1.237,3.408,3.408,0,0,1,2.749,1.137,5.067,5.067,0,0,1,.964,3.353V112.76a4.813,4.813,0,0,1-1.036,3.368,3.476,3.476,0,0,1-2.676,1.123,3.426,3.426,0,0,1-2.662-1.167A4.8,4.8,0,0,1,890.352,112.76ZM874.9,101.219a13.427,13.427,0,0,0,.993,5.439,7.585,7.585,0,0,0,2.72,3.381,6.717,6.717,0,0,0,3.77,1.137,6.952,6.952,0,0,0,3.784-1.079,7.418,7.418,0,0,0,2.735-3.31,13.372,13.372,0,0,0,1.021-5.569,13.035,13.035,0,0,0-1.021-5.4,8.111,8.111,0,0,0-2.764-3.453,6.6,6.6,0,0,0-3.812-1.195,6.438,6.438,0,0,0-3.857,1.223,7.851,7.851,0,0,0-2.634,3.512A13.963,13.963,0,0,0,874.9,101.219Z" transform="translate(-835.278 -73.619)" fill="#fff"/>
            <path id="Trazado_8868" data-name="Trazado 8868" d="M952.211,112.566H936.843a10.432,10.432,0,0,0,1.079,4.72,7.223,7.223,0,0,0,6.634,4.115,9.393,9.393,0,0,0,2.575-.331,8.359,8.359,0,0,0,2.26-1.036,17.24,17.24,0,0,0,2.014-1.511q.921-.806,2.389-2.187a2.576,2.576,0,0,1,1.727-.519,2.849,2.849,0,0,1,1.957.662,2.368,2.368,0,0,1,.747,1.871,5.116,5.116,0,0,1-.834,2.49,9.891,9.891,0,0,1-2.518,2.734,14.361,14.361,0,0,1-4.231,2.173,18.237,18.237,0,0,1-5.857.864q-7.57,0-11.771-4.318t-4.2-11.713a19.559,19.559,0,0,1,1.036-6.462,14.264,14.264,0,0,1,3.022-5.109,13.115,13.115,0,0,1,4.893-3.266,17.572,17.572,0,0,1,6.447-1.137,15.285,15.285,0,0,1,7.9,1.943,12.781,12.781,0,0,1,4.937,5.022,13.213,13.213,0,0,1,1.64,6.274q0,2.965-1.7,3.842A10.569,10.569,0,0,1,952.211,112.566Zm-15.368-4.461h14.246a9.553,9.553,0,0,0-2.173-6.029,6.508,6.508,0,0,0-4.965-2,6.29,6.29,0,0,0-4.821,2.03A10.084,10.084,0,0,0,936.843,108.105Z" transform="translate(-862.843 -82.98)" fill="#fff"/>
            <path id="Trazado_8869" data-name="Trazado 8869" d="M997.121,115.318v6.562A5.056,5.056,0,0,1,996,125.463a3.74,3.74,0,0,1-2.849,1.195,3.6,3.6,0,0,1-2.793-1.209,5.157,5.157,0,0,1-1.094-3.569V100.007q0-5.3,3.828-5.295a3.2,3.2,0,0,1,2.821,1.237,6.834,6.834,0,0,1,.95,3.655,13.715,13.715,0,0,1,2.892-3.655,5.977,5.977,0,0,1,3.958-1.237,10.132,10.132,0,0,1,4.806,1.237,3.7,3.7,0,0,1,2.331,3.281,3.119,3.119,0,0,1-.993,2.374,3.078,3.078,0,0,1-2.144.936,9.907,9.907,0,0,1-2.087-.532,9.7,9.7,0,0,0-2.921-.533,4.274,4.274,0,0,0-2.82.907,5.815,5.815,0,0,0-1.7,2.692,18.809,18.809,0,0,0-.835,4.245Q997.121,111.778,997.121,115.318Z" transform="translate(-889.806 -83.027)" fill="#fff"/>
          </g>
        </g>
      </g>
    </g>
    <g id="Grupo_8609" data-name="Grupo 8609" transform="translate(727.272 85.306)">
      <g id="Grupo_8608" data-name="Grupo 8608" transform="translate(0 0)">
        <g id="Grupo_8605" data-name="Grupo 8605" transform="translate(0 15.733)">
          <path id="Trazado_8870" data-name="Trazado 8870" d="M764.485,123.386c.285.626.549,1.208.813,1.791l2.514,5.566c.3.674.605,1.349.92,2.02a.323.323,0,0,1-.045.355q-2.977,4.515-5.951,9.033c-1.7,2.584-3.392,5.177-5.11,7.752a4.288,4.288,0,0,1-3.155,1.922,4.419,4.419,0,0,1-4.859-3.44,4.2,4.2,0,0,1,.581-3.3q6.192-9.409,12.388-18.813l1.747-2.656C764.367,123.551,764.412,123.49,764.485,123.386Z" transform="translate(-749.498 -123.386)" fill="#fff" fill-rule="evenodd"/>
        </g>
        <path id="Trazado_8871" data-name="Trazado 8871" d="M786.99,127.08H778.2l-14.44-31.991H772.9Z" transform="translate(-755.861 -95.031)" fill="#fff"/>
        <path id="Trazado_8872" data-name="Trazado 8872" d="M790.495,112.281l-4.272-9.69,4.955-7.524h10.481Z" transform="translate(-765.878 -95.022)" fill="#fff" fill-rule="evenodd"/>
        <g id="Grupo_8607" data-name="Grupo 8607" transform="translate(6.507)">
          <g id="Grupo_8606" data-name="Grupo 8606" clip-path="url(#clip-path)">
            <g transform="matrix(1, 0, 0, 1, -34.11, -12.02)" filter="url(#Trazado_8873)">
              <path id="Trazado_8873-2" data-name="Trazado 8873" d="M778.3,127.1l8.94.1L772.42,93.733l-9.924-1.62Z" transform="translate(-727.69 -81.68)" fill="#fff" opacity="0.8"/>
            </g>
          </g>
        </g>
      </g>
    </g>
  </g>
</svg>
